<svg width="150" height="50" viewBox="0 0 266 88" fill="none" xmlns="http://www.w3.org/2000/svg">
<g clip-path="url(#clip0_2_73)">
<path d="M38.1187 37.1426C34.8627 37.1426 31.8667 35.276 29.1307 31.5413L25.2107 26.1893C23.504 23.86 23.4813 20.6973 25.156 18.3413L38.1867 -1.66427e-05H29.7853C27.5787 -1.66427e-05 25.512 1.08532 24.2547 2.89865L12.9667 19.224H10.9467V-1.66427e-05H7.292C3.26533 -1.66427e-05 0 3.26398 0 7.29065V46.2666H2.07867C6.97467 46.2666 10.9467 42.2973 10.9467 37.3986V27.3026H13.7507L20.396 37.1426C22.612 40.4013 24.8813 42.7693 27.2053 44.2466C29.4187 45.6533 32.3187 46.3707 35.856 46.4373L39.2333 37.1426H38.1187Z" fill="#07B04C"/>
<path d="M79.0347 -1.66376e-05H74.412C69.9893 -1.66376e-05 66.0387 2.76665 64.528 6.92398L53.6133 36.956L50.2333 46.2507C50.3413 46.252 50.436 46.2653 50.544 46.2653H53.6933H57.0027C59.5373 46.2653 61.788 44.6493 62.6013 42.2493L64.436 36.8173H81.12L82.8267 41.8747C83.7147 44.5 86.176 46.2653 88.9467 46.2653H95.908L79.0347 -1.66376e-05ZM67.304 28.216L71.784 14.8253C72.1053 13.872 73.4507 13.872 73.7693 14.8253L78.2493 28.216H67.304Z" fill="#07B04C"/>
<path d="M145.027 37.1426C141.771 37.1426 138.775 35.276 136.039 31.5413L132.119 26.1893C130.412 23.86 130.391 20.6973 132.064 18.3413L145.095 -1.66427e-05H136.693C134.487 -1.66427e-05 132.42 1.08532 131.163 2.89865L119.875 19.224H117.855V-1.66427e-05H114.2C110.173 -1.66427e-05 106.908 3.26398 106.908 7.29065V46.2666H108.987C113.883 46.2666 117.855 42.2973 117.855 37.3986V27.3026H120.659L127.304 37.1426C129.52 40.4013 131.789 42.7693 134.113 44.2466C136.327 45.6533 139.227 46.3707 142.764 46.4373L146.141 37.1426H145.027Z" fill="#07B04C"/>
<path d="M176.497 46.9187C170.589 46.9187 165.885 45.3227 162.391 42.128C158.892 38.9347 157.141 34.5347 157.141 28.9333V7.88283e-06H159.341C164.175 7.88283e-06 168.092 3.91867 168.092 8.75201V27.6947C168.092 30.6067 168.849 32.8093 170.373 34.308C171.895 35.808 173.957 36.556 176.561 36.556C179.212 36.556 181.297 35.808 182.819 34.308C184.34 32.8093 185.099 30.6067 185.099 27.6947V8.71467C185.099 3.90134 189 7.88283e-06 193.813 7.88283e-06H195.916V28.9333C195.916 34.5347 194.168 38.9347 190.672 42.128C187.173 45.3227 182.447 46.9187 176.497 46.9187Z" fill="#07B04C"/>
<path d="M226.584 36.816H235.577C239.988 36.816 243.564 40.392 243.564 44.804V46.2653H212.979C209.629 46.2653 206.916 43.552 206.916 40.204L225.84 13.3453C226.901 11.688 225.712 9.51332 223.745 9.51332H208.284V7.27599C208.284 3.25865 211.543 -7.4149e-06 215.561 -7.4149e-06H243.299V6.06132L224.703 33.3733C223.747 34.8613 224.816 36.816 226.584 36.816Z" fill="#07B04C"/>
<path d="M254.564 46.2653V7.48532C254.564 3.35065 257.916 -1.66376e-05 262.051 -1.66376e-05H265.511V46.2653H254.564Z" fill="#07B04C"/>
<path d="M54.6294 70.8403C54.5916 70.8875 54.5208 71.0386 54.417 71.2935C54.3226 71.5389 54.2046 71.8504 54.063 72.228C53.9214 72.6056 53.7656 73.0304 53.5957 73.5024C53.4352 73.965 53.2653 74.4417 53.0859 74.9326C52.916 75.4141 52.7508 75.8908 52.5903 76.3628C52.4299 76.8254 52.2835 77.2454 52.1514 77.623C52.0286 78.0007 51.9248 78.3169 51.8398 78.5718C51.7549 78.8267 51.703 78.9777 51.6841 79.0249C51.6369 79.1759 51.5614 79.3411 51.4575 79.5205C51.3537 79.7093 51.231 79.884 51.0894 80.0444C50.9478 80.2144 50.792 80.3512 50.6221 80.4551C50.4521 80.5684 50.2775 80.625 50.0981 80.625C49.7961 80.625 49.5742 80.54 49.4326 80.3701C49.3005 80.2002 49.2344 79.8887 49.2344 79.4355C49.2344 79.3695 49.2344 79.3034 49.2344 79.2373C49.2344 79.1712 49.2391 79.1004 49.2485 79.0249C49.258 78.8739 49.3288 78.5907 49.4609 78.1753C49.5931 77.7599 49.7489 77.2926 49.9282 76.7734C50.117 76.2448 50.3153 75.702 50.5229 75.145C50.7401 74.5786 50.9336 74.0736 51.1035 73.6299C50.6032 74.1019 50.0604 74.5739 49.4751 75.0459C48.8898 75.5085 48.2904 75.9285 47.6768 76.3062C47.0632 76.6743 46.4448 76.9764 45.8218 77.2124C45.1987 77.4484 44.5993 77.5664 44.0234 77.5664C43.3626 77.5664 42.7915 77.4437 42.3101 77.1982C41.8381 76.9528 41.4463 76.6318 41.1348 76.2354C40.8232 75.8389 40.592 75.3905 40.4409 74.8901C40.2899 74.3898 40.2144 73.8895 40.2144 73.3892C40.2144 73.3231 40.2144 73.2617 40.2144 73.2051C40.2144 73.1484 40.2191 73.0918 40.2285 73.0352C40.2852 72.1289 40.4362 71.1991 40.6816 70.2456C40.9365 69.2922 41.2669 68.3434 41.6729 67.3994C42.0788 66.4554 42.5461 65.535 43.0747 64.6382C43.6128 63.7319 44.1934 62.8776 44.8164 62.0752C45.4489 61.2728 46.1191 60.5365 46.8271 59.8662C47.5352 59.1865 48.262 58.606 49.0078 58.1245C49.7536 57.6336 50.5041 57.2513 51.2593 56.9775C52.0239 56.7038 52.7791 56.5669 53.5249 56.5669C54.384 56.5669 55.2147 56.7651 56.0171 57.1616C56.8195 57.5581 57.57 58.2 58.2686 59.0874C58.429 59.2856 58.5282 59.4886 58.5659 59.6963C58.6131 59.8945 58.6367 60.0833 58.6367 60.2627C58.6367 60.6875 58.514 61.0226 58.2686 61.2681C58.0326 61.5135 57.7493 61.6362 57.4189 61.6362C57.1169 61.6362 56.8337 61.5041 56.5693 61.2397C56.3145 60.966 56.0265 60.5789 55.7056 60.0786C55.4035 59.6255 55.0684 59.2998 54.7002 59.1016C54.3415 58.8939 53.9497 58.79 53.5249 58.79C52.8641 58.79 52.1561 59.0213 51.4009 59.4839C50.6551 59.9465 49.9141 60.5601 49.1777 61.3247C48.4414 62.0799 47.7334 62.9484 47.0537 63.9302C46.3835 64.9025 45.7887 65.9032 45.2695 66.9321C44.7503 67.9517 44.335 68.9618 44.0234 69.9624C43.7214 70.9536 43.5703 71.8457 43.5703 72.6387C43.5703 72.903 43.5892 73.1768 43.627 73.46C43.6742 73.7337 43.7544 73.9839 43.8677 74.2104C43.9904 74.437 44.1509 74.6258 44.3491 74.7769C44.5568 74.9185 44.8164 74.9893 45.1279 74.9893C45.4772 74.9893 45.8737 74.8901 46.3174 74.6919C46.7611 74.4937 47.2189 74.234 47.6909 73.9131C48.1724 73.5921 48.6538 73.2287 49.1353 72.8228C49.6167 72.4168 50.0651 72.0062 50.4805 71.5908C50.8958 71.1755 51.264 70.779 51.585 70.4014C51.9059 70.0143 52.1466 69.6792 52.3071 69.396L53.624 66.0684C53.7845 65.7096 53.9922 65.4548 54.2471 65.3037C54.5114 65.1527 54.7804 65.0771 55.0542 65.0771C55.1864 65.0771 55.3185 65.096 55.4507 65.1338C55.5828 65.1715 55.7008 65.2329 55.8047 65.3179C55.9085 65.3934 55.9888 65.4972 56.0454 65.6294C56.1115 65.7521 56.1445 65.8984 56.1445 66.0684C56.1445 66.5215 56.0973 66.9463 56.0029 67.3428C55.9085 67.7393 55.7858 68.1263 55.6348 68.5039C55.4932 68.8815 55.3327 69.2638 55.1533 69.6509C54.974 70.0285 54.7993 70.425 54.6294 70.8403ZM62.3467 68.7446C62.7148 68.5181 63.0924 68.3104 63.4795 68.1216C63.876 67.9328 64.2583 67.7723 64.6265 67.6401C64.9946 67.4985 65.3439 67.39 65.6743 67.3145C66.0142 67.2295 66.3162 67.187 66.5806 67.187C67.0054 67.187 67.3311 67.2909 67.5576 67.4985C67.7936 67.6968 67.9116 68.0366 67.9116 68.5181C67.9116 68.6219 67.9069 68.7352 67.8975 68.8579C67.888 68.9712 67.8691 69.0939 67.8408 69.2261C67.7936 69.4715 67.652 69.7594 67.416 70.0898C67.18 70.4202 66.9015 70.7648 66.5806 71.1235C66.269 71.4823 65.9292 71.8457 65.561 72.2139C65.2023 72.5726 64.8672 72.9077 64.5557 73.2192C64.2536 73.5213 63.9987 73.7856 63.791 74.0122C63.5928 74.2388 63.4937 74.3945 63.4937 74.4795C63.4937 74.555 63.4984 74.6069 63.5078 74.6353C63.5173 74.6636 63.5597 74.6777 63.6353 74.6777C64.145 74.4606 64.7114 74.201 65.3345 73.8989C65.967 73.5874 66.5947 73.2712 67.2178 72.9502C67.8408 72.6292 68.4308 72.3177 68.9878 72.0156C69.5448 71.7041 70.0168 71.4351 70.4038 71.2085C70.4888 71.1613 70.5737 71.1235 70.6587 71.0952C70.7531 71.0575 70.8381 71.0386 70.9136 71.0386C71.0835 71.0386 71.2251 71.0952 71.3384 71.2085C71.4517 71.3218 71.5083 71.4728 71.5083 71.6616C71.5083 71.8787 71.4139 72.1289 71.2251 72.4121C71.0457 72.6859 70.7389 72.9738 70.3047 73.2759C69.9743 73.4836 69.6014 73.7196 69.186 73.9839C68.7801 74.2388 68.3506 74.5078 67.8975 74.791C67.4538 75.0648 67.0007 75.3338 66.5381 75.5981C66.085 75.8625 65.646 76.0985 65.2212 76.3062C64.7964 76.5138 64.3952 76.6838 64.0176 76.8159C63.6494 76.9386 63.3285 77 63.0547 77C62.4033 77 61.9124 76.8442 61.582 76.5327C61.2611 76.2212 61.1006 75.82 61.1006 75.3291C61.1006 75.2536 61.1053 75.1969 61.1147 75.1592C61.1808 74.7438 61.3035 74.3426 61.4829 73.9556C61.6623 73.5685 61.8652 73.2004 62.0918 72.8511C62.3184 72.5018 62.5544 72.1714 62.7998 71.8599C63.0452 71.5389 63.2671 71.2415 63.4653 70.9678C63.673 70.6846 63.8429 70.425 63.9751 70.189C64.1073 69.953 64.1733 69.7358 64.1733 69.5376C64.1733 69.4904 64.1639 69.4432 64.145 69.396C64.1261 69.3488 64.0837 69.3252 64.0176 69.3252C63.9043 69.3252 63.7155 69.3677 63.4512 69.4526C63.1963 69.5376 62.9225 69.6509 62.6299 69.7925C62.3372 69.9341 62.0588 70.0993 61.7944 70.2881C61.5301 70.4674 61.3413 70.661 61.228 70.8687C61.077 71.133 60.9023 71.4681 60.7041 71.874C60.5059 72.2799 60.2982 72.7048 60.0811 73.1484C59.8734 73.5921 59.6704 74.0311 59.4722 74.4653C59.2739 74.8996 59.104 75.2725 58.9624 75.584C58.8491 75.8577 58.6981 76.1032 58.5093 76.3203C58.3299 76.5374 58.1317 76.7215 57.9146 76.8726C57.6974 77.0236 57.4756 77.1416 57.249 77.2266C57.0225 77.3115 56.8148 77.354 56.626 77.354C56.4089 77.354 56.2342 77.2974 56.1021 77.1841C55.9793 77.0708 55.918 76.8867 55.918 76.6318C55.918 76.528 55.9321 76.4006 55.9604 76.2495C55.9982 76.089 56.069 75.9144 56.1729 75.7256C56.3428 75.4046 56.5127 75.0553 56.6826 74.6777C56.862 74.3001 57.0649 73.8706 57.2915 73.3892C57.5181 72.8983 57.7777 72.3413 58.0703 71.7183C58.3724 71.0858 58.7264 70.3589 59.1323 69.5376C59.0002 69.4243 58.8869 69.2874 58.7925 69.127C58.7075 68.957 58.665 68.7493 58.665 68.5039C58.665 68.2773 58.7122 68.0838 58.8066 67.9233C58.901 67.7534 59.0285 67.6165 59.189 67.5127C59.3494 67.4089 59.5335 67.3333 59.7412 67.2861C59.9583 67.2295 60.1849 67.2012 60.4209 67.2012C60.6663 67.2012 60.9118 67.2248 61.1572 67.272C61.4027 67.3097 61.6198 67.3711 61.8086 67.4561C62.0068 67.541 62.1673 67.6449 62.29 67.7676C62.4128 67.8903 62.4741 68.0319 62.4741 68.1924C62.4741 68.2207 62.4647 68.2585 62.4458 68.3057C62.4269 68.3529 62.4033 68.4048 62.375 68.4614C62.3561 68.5181 62.3372 68.57 62.3184 68.6172C62.2995 68.6644 62.29 68.7021 62.29 68.7305C62.29 68.7493 62.2948 68.7588 62.3042 68.7588H62.3184L62.3467 68.7446ZM74.7793 69.1978C74.3356 69.1978 73.9061 69.311 73.4907 69.5376C73.0848 69.7547 72.7214 70.0474 72.4004 70.4155C72.0889 70.7743 71.8387 71.1849 71.6499 71.6475C71.4611 72.1006 71.3667 72.5679 71.3667 73.0493C71.3667 73.2287 71.3809 73.4269 71.4092 73.644C71.4375 73.8517 71.4941 74.05 71.5791 74.2388C71.6735 74.4181 71.8057 74.5692 71.9756 74.6919C72.1455 74.8146 72.3721 74.876 72.6553 74.876C73.0895 74.876 73.5096 74.7627 73.9155 74.5361C74.3309 74.3001 74.6991 73.998 75.02 73.6299C75.341 73.2523 75.5959 72.8275 75.7847 72.3555C75.9735 71.8835 76.0679 71.4067 76.0679 70.9253C76.0679 70.7365 76.0537 70.543 76.0254 70.3447C76.0065 70.137 75.9499 69.9482 75.8555 69.7783C75.7705 69.6084 75.6431 69.4715 75.4731 69.3677C75.3032 69.2544 75.0719 69.1978 74.7793 69.1978ZM75.5156 66.7056C75.8743 66.7056 76.2567 66.7528 76.6626 66.8472C77.078 66.9416 77.4603 67.1021 77.8096 67.3286C78.1589 67.5552 78.4468 67.8573 78.6733 68.2349C78.9093 68.603 79.0273 69.0609 79.0273 69.6084C79.0273 69.8916 78.9896 70.2173 78.9141 70.5854C78.8385 70.9442 78.7253 71.3218 78.5742 71.7183C78.6686 71.8315 78.7772 71.9118 78.8999 71.959C79.0226 72.0062 79.1548 72.0298 79.2964 72.0298C79.4946 72.0298 79.7118 71.9731 79.9478 71.8599C80.1932 71.7466 80.4434 71.6003 80.6982 71.4209C80.9531 71.2415 81.208 71.0386 81.4629 70.812C81.7178 70.5854 81.9585 70.3589 82.1851 70.1323C82.4116 69.9058 82.6146 69.6934 82.7939 69.4951C82.9827 69.2874 83.1385 69.1128 83.2612 68.9712C83.3273 68.9051 83.4076 68.8721 83.502 68.8721C83.6341 68.8721 83.7521 68.9429 83.856 69.0845C83.9598 69.2166 84.0117 69.4054 84.0117 69.6509C84.0117 69.8963 83.9362 70.1795 83.7852 70.5005C83.6436 70.8215 83.3745 71.1566 82.978 71.5059C82.7515 71.7513 82.4919 72.0345 82.1992 72.3555C81.9066 72.6764 81.5951 72.9785 81.2646 73.2617C80.9342 73.5449 80.5897 73.7856 80.231 73.9839C79.8722 74.1821 79.5135 74.2812 79.1548 74.2812C78.9093 74.2812 78.6686 74.2435 78.4326 74.168C78.2061 74.0924 77.9748 73.9697 77.7388 73.7998C77.3989 74.3285 77.0119 74.8099 76.5776 75.2441C76.1434 75.6784 75.6572 76.0513 75.1191 76.3628C74.5905 76.6743 74.0146 76.915 73.3916 77.085C72.778 77.2643 72.1219 77.354 71.4233 77.354C71.159 77.354 70.8522 77.3021 70.5029 77.1982C70.1536 77.0944 69.8185 76.9245 69.4976 76.6885C69.186 76.443 68.9217 76.1268 68.7046 75.7397C68.4875 75.3527 68.3789 74.8807 68.3789 74.3237C68.3789 73.9461 68.4403 73.493 68.563 72.9644C68.6857 72.4357 68.8698 71.8929 69.1152 71.3359C69.3701 70.7695 69.6864 70.2126 70.064 69.665C70.451 69.1081 70.9089 68.6125 71.4375 68.1782C71.9661 67.7345 72.5703 67.3805 73.25 67.1162C73.9297 66.8424 74.6849 66.7056 75.5156 66.7056ZM82.0293 70.0757C82.3219 69.4243 82.5627 68.9004 82.7515 68.5039C82.9403 68.098 83.1102 67.7865 83.2612 67.5693C83.4217 67.3428 83.5775 67.1917 83.7285 67.1162C83.889 67.0407 84.0872 67.0029 84.3232 67.0029C84.682 67.0029 84.9888 67.1209 85.2437 67.3569C85.508 67.5835 85.6401 67.8761 85.6401 68.2349C85.6401 68.3198 85.626 68.4048 85.5977 68.4897C85.5788 68.5747 85.5505 68.6597 85.5127 68.7446L83.1055 74.437C83.0677 74.5125 83.0394 74.5975 83.0205 74.6919C83.0111 74.7769 83.0063 74.8477 83.0063 74.9043C83.0063 75.027 83.0299 75.1214 83.0771 75.1875C83.1338 75.2441 83.1904 75.2725 83.2471 75.2725C83.3509 75.2725 83.4548 75.2489 83.5586 75.2017C83.6719 75.1545 83.7993 75.0742 83.9409 74.9609C84.092 74.8382 84.2713 74.6777 84.479 74.4795C84.6961 74.2718 84.9604 74.0122 85.272 73.7007C85.5646 73.3892 85.8667 73.0163 86.1782 72.582C86.4897 72.1383 86.7918 71.6758 87.0845 71.1943C87.3866 70.7035 87.665 70.2126 87.9199 69.7217C88.1748 69.2214 88.3966 68.7588 88.5854 68.334C88.7271 68.0508 88.8545 67.8242 88.9678 67.6543C89.0811 67.4749 89.1896 67.3381 89.2935 67.2437C89.4067 67.1493 89.52 67.0879 89.6333 67.0596C89.7466 67.0218 89.8787 67.0029 90.0298 67.0029C90.6056 67.0029 90.8936 67.2531 90.8936 67.7534C90.8747 67.8289 90.8605 67.9139 90.8511 68.0083C90.8511 68.1027 90.8275 68.2113 90.7803 68.334L88.5713 74.8618C88.5713 75.0978 88.6893 75.2158 88.9253 75.2158C89.0952 75.1969 89.3171 75.112 89.5908 74.9609C89.874 74.8005 90.1572 74.6022 90.4404 74.3662C90.7236 74.1208 90.988 73.8423 91.2334 73.5308C91.4788 73.2098 91.6582 72.8794 91.7715 72.5396C91.9792 71.9165 92.1868 71.2887 92.3945 70.6562C92.6117 70.0238 92.8382 69.4526 93.0742 68.9429C93.3197 68.4237 93.5793 67.9989 93.853 67.6685C94.1362 67.3286 94.4478 67.1445 94.7876 67.1162C95.0897 67.1162 95.3351 67.2153 95.5239 67.4136C95.7222 67.6024 95.8213 67.8525 95.8213 68.1641C95.8213 68.5322 95.7694 68.9287 95.6655 69.3535C95.5711 69.7783 95.4437 70.2031 95.2832 70.6279C95.1227 71.0527 94.9292 71.4634 94.7026 71.8599C94.4855 72.2563 94.259 72.6151 94.0229 72.936C94.089 73.1343 94.2259 73.2334 94.4336 73.2334C94.8018 73.2334 95.1463 73.2051 95.4673 73.1484C95.7977 73.0918 96.1139 73.0116 96.416 72.9077C96.7275 72.7944 97.0343 72.6623 97.3364 72.5112C97.6479 72.3602 97.9689 72.1855 98.2993 71.9873C98.4504 71.8835 98.6014 71.8315 98.7524 71.8315C98.9412 71.8315 99.1112 71.9023 99.2622 72.0439C99.4132 72.1855 99.4888 72.3696 99.4888 72.5962C99.4888 72.8039 99.3944 73.0163 99.2056 73.2334C99.0262 73.4505 98.7855 73.6629 98.4834 73.8706C98.1813 74.0783 97.8368 74.2718 97.4497 74.4512C97.0721 74.6305 96.6851 74.791 96.2886 74.9326C95.9015 75.0648 95.5239 75.1733 95.1558 75.2583C94.797 75.3338 94.4808 75.3716 94.207 75.3716C93.6784 75.3716 93.1356 75.2205 92.5786 74.9185C91.9178 75.7114 91.2287 76.3156 90.5112 76.731C89.8032 77.1463 89.0811 77.354 88.3447 77.354C87.665 77.354 87.1742 77.1794 86.8721 76.8301C86.5794 76.4714 86.4331 75.9521 86.4331 75.2725C85.7251 75.9899 85.0596 76.5186 84.4365 76.8584C83.8229 77.1888 83.1904 77.354 82.5391 77.354C82.1237 77.354 81.7744 77.3021 81.4912 77.1982C81.2174 77.1038 80.9956 76.967 80.8257 76.7876C80.6558 76.6082 80.533 76.4006 80.4575 76.1646C80.3914 75.9191 80.3584 75.6548 80.3584 75.3716C80.3584 74.909 80.4245 74.4229 80.5566 73.9131C80.6888 73.3939 80.8446 72.8936 81.0239 72.4121C81.2127 71.9307 81.3968 71.487 81.5762 71.0811C81.765 70.6657 81.916 70.3306 82.0293 70.0757ZM100.919 64.7515C100.919 64.5343 100.957 64.3125 101.032 64.0859C101.117 63.8499 101.24 63.6375 101.4 63.4487C101.561 63.2599 101.759 63.1042 101.995 62.9814C102.241 62.8587 102.528 62.7974 102.859 62.7974C103.406 62.7974 103.789 62.9059 104.006 63.123C104.223 63.3307 104.332 63.5951 104.332 63.916C104.332 64.0954 104.294 64.2936 104.218 64.5107C104.152 64.7279 104.048 64.9308 103.907 65.1196C103.765 65.299 103.581 65.45 103.354 65.5728C103.128 65.6955 102.859 65.7568 102.547 65.7568C101.962 65.7568 101.551 65.6672 101.315 65.4878C101.079 65.299 100.947 65.0535 100.919 64.7515ZM99.3613 67.9375C99.5218 67.6732 99.7059 67.4844 99.9136 67.3711C100.121 67.2578 100.334 67.2012 100.551 67.2012C100.91 67.2012 101.216 67.3192 101.471 67.5552C101.736 67.7817 101.868 68.0744 101.868 68.4331C101.858 68.5181 101.844 68.603 101.825 68.688C101.816 68.7729 101.787 68.8579 101.74 68.9429C101.608 69.1883 101.5 69.396 101.415 69.5659C101.33 69.7358 101.249 69.8963 101.174 70.0474C101.108 70.189 101.042 70.3306 100.976 70.4722C100.91 70.6138 100.829 70.7837 100.735 70.9819C100.622 71.2179 100.494 71.4775 100.353 71.7607C100.211 72.0345 100.074 72.3177 99.9419 72.6104C99.8192 72.903 99.7106 73.1909 99.6162 73.4741C99.5312 73.7573 99.4888 74.0169 99.4888 74.2529C99.4888 74.5078 99.5501 74.6777 99.6729 74.7627C99.805 74.8382 99.9891 74.876 100.225 74.876C100.489 74.876 100.763 74.8193 101.046 74.7061C101.339 74.5928 101.632 74.4465 101.924 74.2671C102.217 74.0877 102.505 73.8848 102.788 73.6582C103.071 73.4222 103.336 73.1862 103.581 72.9502C103.836 72.7142 104.067 72.4876 104.275 72.2705C104.492 72.0534 104.671 71.8599 104.813 71.6899C105.002 71.5106 105.191 71.4209 105.379 71.4209C105.549 71.4209 105.686 71.4964 105.79 71.6475C105.903 71.7985 105.96 71.992 105.96 72.228C105.96 72.4451 105.903 72.6764 105.79 72.9219C105.686 73.1673 105.512 73.3986 105.266 73.6157C104.785 74.1066 104.294 74.5786 103.793 75.0317C103.293 75.4754 102.779 75.8719 102.25 76.2212C101.731 76.561 101.207 76.8348 100.678 77.0425C100.15 77.2502 99.6162 77.354 99.0781 77.354C98.3135 77.354 97.7093 77.1605 97.2656 76.7734C96.8314 76.377 96.6143 75.7633 96.6143 74.9326C96.6143 74.4984 96.6756 74.0736 96.7983 73.6582C96.9211 73.2428 97.0674 72.8416 97.2373 72.4546C97.4072 72.0581 97.5866 71.6805 97.7754 71.3218C97.9642 70.9536 98.1247 70.6043 98.2568 70.2739C98.304 70.1512 98.3843 69.9624 98.4976 69.7075C98.6203 69.4526 98.7477 69.193 98.8799 68.9287C99.0309 68.6172 99.1914 68.2868 99.3613 67.9375ZM106.569 68.4048C106.758 67.9989 106.994 67.6968 107.277 67.4985C107.56 67.3003 107.839 67.2012 108.112 67.2012C108.339 67.2012 108.542 67.2861 108.721 67.4561C108.901 67.6165 108.99 67.8573 108.99 68.1782C108.99 68.3009 108.976 68.4331 108.948 68.5747C108.919 68.7163 108.868 68.8674 108.792 69.0278C109 68.7635 109.297 68.4945 109.684 68.2207C110.071 67.9375 110.496 67.6873 110.958 67.4702C111.431 67.2437 111.912 67.0596 112.403 66.918C112.903 66.7764 113.375 66.7056 113.819 66.7056C114.319 66.7056 114.735 66.8283 115.065 67.0737C115.405 67.3097 115.575 67.7157 115.575 68.2915C115.575 68.6313 115.523 68.9854 115.419 69.3535C115.315 69.7217 115.178 70.0898 115.008 70.458C114.848 70.8262 114.664 71.1896 114.456 71.5483C114.258 71.8976 114.06 72.228 113.861 72.5396C113.663 72.8511 113.479 73.139 113.309 73.4033C113.149 73.6582 113.021 73.8706 112.927 74.0405C112.804 74.1916 112.743 74.3662 112.743 74.5645C112.743 74.64 112.766 74.7061 112.813 74.7627C112.861 74.8193 112.936 74.8477 113.04 74.8477C113.106 74.8477 113.182 74.8429 113.267 74.8335C113.352 74.8146 113.455 74.7627 113.578 74.6777C114.088 74.4889 114.607 74.2529 115.136 73.9697C115.674 73.6865 116.188 73.3892 116.679 73.0776C117.17 72.7567 117.618 72.4404 118.024 72.1289C118.44 71.8079 118.784 71.52 119.058 71.2651C119.134 71.1991 119.209 71.1519 119.285 71.1235C119.36 71.0952 119.431 71.0811 119.497 71.0811C119.658 71.0811 119.78 71.1424 119.865 71.2651C119.96 71.3879 120.007 71.5436 120.007 71.7324C120.007 72.0251 119.912 72.3507 119.724 72.7095C119.544 73.0682 119.256 73.4033 118.86 73.7148C118.322 74.1019 117.826 74.4559 117.373 74.7769C116.929 75.0978 116.472 75.3999 116 75.6831C115.537 75.9569 115.037 76.2165 114.499 76.4619C113.97 76.6979 113.347 76.9198 112.629 77.1274C112.384 77.203 112.157 77.2596 111.95 77.2974C111.751 77.3351 111.567 77.354 111.397 77.354C110.897 77.354 110.529 77.2171 110.293 76.9434C110.066 76.6602 109.953 76.2684 109.953 75.7681C109.953 75.702 109.953 75.6406 109.953 75.584C109.963 75.5179 109.972 75.4471 109.981 75.3716C110 75.0789 110.076 74.758 110.208 74.4087C110.35 74.0594 110.515 73.7007 110.704 73.3325C110.902 72.9644 111.11 72.6009 111.327 72.2422C111.544 71.874 111.742 71.5295 111.921 71.2085C112.11 70.8781 112.266 70.5854 112.389 70.3306C112.511 70.0757 112.573 69.868 112.573 69.7075C112.573 69.5659 112.53 69.4479 112.445 69.3535C112.37 69.2497 112.252 69.1978 112.091 69.1978C111.487 69.1978 110.911 69.3771 110.364 69.7358C109.826 70.0946 109.321 70.5382 108.849 71.0669C108.377 71.5861 107.942 72.1383 107.546 72.7236C107.149 73.3089 106.8 73.8328 106.498 74.2954C106.309 74.6069 106.135 74.9421 105.974 75.3008C105.823 75.6501 105.663 75.9805 105.493 76.292C105.323 76.5941 105.129 76.8442 104.912 77.0425C104.704 77.2502 104.44 77.354 104.119 77.354C103.789 77.354 103.529 77.2502 103.34 77.0425C103.152 76.8348 103.057 76.5799 103.057 76.2778C103.057 76.1174 103.123 75.8577 103.255 75.499C103.388 75.1403 103.557 74.7249 103.765 74.2529C103.973 73.7809 104.204 73.2759 104.459 72.7378C104.723 72.1903 104.983 71.6522 105.238 71.1235C105.502 70.5854 105.752 70.0804 105.988 69.6084C106.224 69.1364 106.418 68.7352 106.569 68.4048ZM124.354 66.7056C124.769 66.7056 125.133 66.7575 125.444 66.8613C125.756 66.9652 126.02 67.0785 126.237 67.2012C126.483 67.3522 126.7 67.5174 126.889 67.6968C127.021 67.6118 127.162 67.5316 127.313 67.4561C127.446 67.39 127.592 67.3333 127.752 67.2861C127.913 67.2295 128.073 67.2012 128.234 67.2012C128.649 67.2012 128.97 67.2861 129.197 67.4561C129.423 67.626 129.537 67.8289 129.537 68.0649C129.537 68.1877 129.504 68.3104 129.438 68.4331L126.124 74.7061L126.393 74.4653C127.507 73.814 128.423 73.3042 129.14 72.936C129.858 72.5584 130.429 72.2799 130.854 72.1006C131.278 71.9212 131.58 71.8127 131.76 71.7749C131.949 71.7277 132.067 71.7041 132.114 71.7041C132.331 71.7041 132.496 71.7891 132.609 71.959C132.732 72.1195 132.793 72.3224 132.793 72.5679C132.793 72.8416 132.713 73.1201 132.553 73.4033C132.402 73.6865 132.166 73.8895 131.845 74.0122C131.42 74.2293 130.924 74.4653 130.358 74.7202C129.792 74.9657 129.201 75.2394 128.588 75.5415C127.974 75.8436 127.356 76.1834 126.733 76.561C126.119 76.9292 125.543 77.3398 125.005 77.793L122.258 82.7632C122.032 83.3013 121.824 83.7402 121.635 84.0801C121.456 84.4199 121.277 84.689 121.097 84.8872C120.918 85.0854 120.734 85.2223 120.545 85.2979C120.356 85.3734 120.139 85.4111 119.894 85.4111C119.525 85.4111 119.233 85.2837 119.016 85.0288C118.808 84.7739 118.704 84.4671 118.704 84.1084C118.704 83.7308 118.794 83.2918 118.973 82.7915C119.153 82.2912 119.403 81.7484 119.724 81.1631C120.054 80.5872 120.451 79.9784 120.913 79.3364C121.376 78.7039 121.89 78.0573 122.457 77.3965L124.212 75.1592C123.854 75.4896 123.5 75.7728 123.15 76.0088C122.801 76.2448 122.466 76.4383 122.145 76.5894C121.824 76.731 121.522 76.8348 121.239 76.9009C120.965 76.967 120.724 77 120.517 77C120.139 77 119.79 76.915 119.469 76.7451C119.148 76.5658 118.869 76.3203 118.633 76.0088C118.407 75.6973 118.227 75.3291 118.095 74.9043C117.963 74.4795 117.897 74.0169 117.897 73.5166C117.897 72.4782 118.095 71.5389 118.492 70.6987C118.898 69.8586 119.412 69.1458 120.035 68.5605C120.668 67.9658 121.361 67.508 122.117 67.187C122.881 66.866 123.627 66.7056 124.354 66.7056ZM123.816 69.1978C123.372 69.1978 122.943 69.311 122.527 69.5376C122.112 69.7547 121.744 70.0474 121.423 70.4155C121.102 70.7743 120.847 71.1896 120.658 71.6616C120.469 72.1336 120.375 72.6198 120.375 73.1201C120.375 73.2712 120.384 73.4364 120.403 73.6157C120.432 73.7856 120.484 73.9461 120.559 74.0972C120.644 74.2482 120.762 74.3757 120.913 74.4795C121.074 74.5739 121.291 74.6211 121.564 74.6211C121.763 74.6211 121.994 74.5361 122.258 74.3662C122.532 74.1868 122.811 73.965 123.094 73.7007C123.386 73.4269 123.67 73.1296 123.943 72.8086C124.217 72.4782 124.463 72.1572 124.68 71.8457C124.906 71.5342 125.086 71.2557 125.218 71.0103C125.35 70.7554 125.416 70.5666 125.416 70.4438C125.416 70.2362 125.359 70.0568 125.246 69.9058C125.133 69.7453 124.991 69.6131 124.821 69.5093C124.661 69.4054 124.486 69.3299 124.297 69.2827C124.118 69.2261 123.958 69.1978 123.816 69.1978ZM143.952 76.3345C143.81 76.6177 143.64 76.8678 143.442 77.085C143.244 77.3021 143.031 77.4814 142.805 77.623C142.578 77.7646 142.347 77.8685 142.111 77.9346C141.875 78.0101 141.653 78.0479 141.445 78.0479C141.143 78.0479 140.888 77.9676 140.681 77.8071C140.473 77.6561 140.369 77.4295 140.369 77.1274C140.369 77.0236 140.379 76.9103 140.397 76.7876C140.426 76.6554 140.478 76.5138 140.553 76.3628C141.271 74.8807 141.983 73.4552 142.691 72.0864C143.409 70.7176 144.098 69.4385 144.759 68.249C145.429 67.0596 146.062 65.9787 146.656 65.0063C147.251 64.0246 147.789 63.1891 148.271 62.5C148.761 61.8014 149.177 61.2633 149.517 60.8857C149.866 60.5081 150.121 60.3193 150.281 60.3193C150.612 60.3193 150.857 60.4137 151.018 60.6025C151.178 60.7913 151.258 61.0132 151.258 61.2681C151.258 61.4757 151.206 61.6834 151.103 61.8911C150.867 62.3726 150.597 62.9201 150.295 63.5337C150.003 64.1379 149.691 64.7845 149.361 65.4736C149.03 66.1533 148.686 66.8613 148.327 67.5977C147.968 68.3245 147.614 69.0514 147.265 69.7783C146.916 70.4958 146.571 71.1943 146.231 71.874C145.901 72.5443 145.59 73.1673 145.297 73.7432C145.014 74.319 144.754 74.8335 144.518 75.2866C144.292 75.7303 144.103 76.0796 143.952 76.3345ZM160.505 59.7671C160.505 59.937 160.439 60.1777 160.307 60.4893C160.184 60.7913 160.005 61.0887 159.769 61.3813C159.542 61.674 159.264 61.9289 158.933 62.146C158.612 62.3631 158.253 62.4717 157.857 62.4717C157.763 62.4717 157.645 62.467 157.503 62.4575C157.361 62.4386 157.22 62.4009 157.078 62.3442C156.946 62.2876 156.833 62.2074 156.738 62.1035C156.644 61.9997 156.597 61.8628 156.597 61.6929C156.597 61.6079 156.639 61.4899 156.724 61.3389C156.809 61.1784 156.899 61.0085 156.993 60.8291C157.097 60.6497 157.191 60.4751 157.276 60.3052C157.361 60.1353 157.404 59.9937 157.404 59.8804C157.404 59.5594 157.177 59.3281 156.724 59.1865C156.271 59.0355 155.511 58.96 154.444 58.96C153.378 58.9977 152.415 59.0638 151.556 59.1582C150.697 59.2432 149.904 59.3564 149.177 59.498C148.45 59.6302 147.77 59.786 147.138 59.9653C146.505 60.1447 145.882 60.3382 145.269 60.5459C144.655 60.7441 144.032 60.9613 143.399 61.1973C142.776 61.4238 142.111 61.6551 141.403 61.8911C141.337 61.91 141.271 61.9289 141.205 61.9478C141.148 61.9666 141.096 61.9761 141.049 61.9761C140.898 61.9761 140.761 61.943 140.638 61.877C140.515 61.8109 140.407 61.7212 140.312 61.6079C140.228 61.4946 140.157 61.3672 140.1 61.2256C140.053 61.084 140.029 60.9377 140.029 60.7866C140.029 60.5412 140.228 60.2674 140.624 59.9653C141.021 59.6538 141.563 59.3423 142.252 59.0308C142.942 58.7192 143.753 58.4172 144.688 58.1245C145.623 57.8224 146.628 57.5581 147.704 57.3315C148.79 57.0955 149.918 56.9115 151.088 56.7793C152.268 56.6377 153.444 56.5669 154.614 56.5669C155.624 56.5669 156.498 56.6471 157.234 56.8076C157.97 56.9681 158.579 57.1899 159.061 57.4731C159.542 57.7563 159.901 58.0962 160.137 58.4927C160.373 58.8797 160.495 59.3045 160.505 59.7671ZM157.305 69.1978C156.861 69.1978 156.431 69.311 156.016 69.5376C155.61 69.7547 155.247 70.0474 154.926 70.4155C154.614 70.7743 154.364 71.1849 154.175 71.6475C153.986 72.1006 153.892 72.5679 153.892 73.0493C153.892 73.2287 153.906 73.4269 153.935 73.644C153.963 73.8517 154.02 74.05 154.104 74.2388C154.199 74.4181 154.331 74.5692 154.501 74.6919C154.671 74.8146 154.897 74.876 155.181 74.876C155.615 74.876 156.035 74.7627 156.441 74.5361C156.856 74.3001 157.224 73.998 157.545 73.6299C157.866 73.2523 158.121 72.8275 158.31 72.3555C158.499 71.8835 158.593 71.4067 158.593 70.9253C158.593 70.7365 158.579 70.543 158.551 70.3447C158.532 70.137 158.475 69.9482 158.381 69.7783C158.296 69.6084 158.168 69.4715 157.999 69.3677C157.829 69.2544 157.597 69.1978 157.305 69.1978ZM158.041 66.7056C158.4 66.7056 158.782 66.7528 159.188 66.8472C159.603 66.9416 159.986 67.1021 160.335 67.3286C160.684 67.5552 160.972 67.8573 161.199 68.2349C161.435 68.603 161.553 69.0609 161.553 69.6084C161.553 69.8916 161.515 70.2173 161.439 70.5854C161.364 70.9442 161.251 71.3218 161.1 71.7183C161.194 71.8315 161.303 71.9118 161.425 71.959C161.548 72.0062 161.68 72.0298 161.822 72.0298C162.02 72.0298 162.237 71.9731 162.473 71.8599C162.719 71.7466 162.969 71.6003 163.224 71.4209C163.479 71.2415 163.733 71.0386 163.988 70.812C164.243 70.5854 164.484 70.3589 164.71 70.1323C164.937 69.9058 165.14 69.6934 165.319 69.4951C165.508 69.2874 165.664 69.1128 165.787 68.9712C165.853 68.9051 165.933 68.8721 166.027 68.8721C166.16 68.8721 166.278 68.9429 166.381 69.0845C166.485 69.2166 166.537 69.4054 166.537 69.6509C166.537 69.8963 166.462 70.1795 166.311 70.5005C166.169 70.8215 165.9 71.1566 165.503 71.5059C165.277 71.7513 165.017 72.0345 164.725 72.3555C164.432 72.6764 164.12 72.9785 163.79 73.2617C163.46 73.5449 163.115 73.7856 162.756 73.9839C162.398 74.1821 162.039 74.2812 161.68 74.2812C161.435 74.2812 161.194 74.2435 160.958 74.168C160.731 74.0924 160.5 73.9697 160.264 73.7998C159.924 74.3285 159.537 74.8099 159.103 75.2441C158.669 75.6784 158.183 76.0513 157.645 76.3628C157.116 76.6743 156.54 76.915 155.917 77.085C155.303 77.2643 154.647 77.354 153.949 77.354C153.684 77.354 153.378 77.3021 153.028 77.1982C152.679 77.0944 152.344 76.9245 152.023 76.6885C151.711 76.443 151.447 76.1268 151.23 75.7397C151.013 75.3527 150.904 74.8807 150.904 74.3237C150.904 73.9461 150.966 73.493 151.088 72.9644C151.211 72.4357 151.395 71.8929 151.641 71.3359C151.896 70.7695 152.212 70.2126 152.589 69.665C152.976 69.1081 153.434 68.6125 153.963 68.1782C154.492 67.7345 155.096 67.3805 155.775 67.1162C156.455 66.8424 157.21 66.7056 158.041 66.7056ZM170.459 66.7056C170.875 66.7056 171.238 66.7575 171.55 66.8613C171.861 66.9652 172.126 67.0785 172.343 67.2012C172.588 67.3522 172.805 67.5174 172.994 67.6968C173.126 67.6118 173.268 67.5316 173.419 67.4561C173.551 67.39 173.697 67.3333 173.858 67.2861C174.018 67.2295 174.179 67.2012 174.339 67.2012C174.755 67.2012 175.076 67.2861 175.302 67.4561C175.529 67.626 175.642 67.8289 175.642 68.0649C175.642 68.1877 175.609 68.3104 175.543 68.4331L172.229 74.7061L172.499 74.4653C173.612 73.814 174.528 73.3042 175.246 72.936C175.963 72.5584 176.534 72.2799 176.959 72.1006C177.384 71.9212 177.686 71.8127 177.865 71.7749C178.054 71.7277 178.172 71.7041 178.219 71.7041C178.436 71.7041 178.602 71.7891 178.715 71.959C178.838 72.1195 178.899 72.3224 178.899 72.5679C178.899 72.8416 178.819 73.1201 178.658 73.4033C178.507 73.6865 178.271 73.8895 177.95 74.0122C177.525 74.2293 177.03 74.4653 176.463 74.7202C175.897 74.9657 175.307 75.2394 174.693 75.5415C174.08 75.8436 173.461 76.1834 172.838 76.561C172.225 76.9292 171.649 77.3398 171.111 77.793L168.364 82.7632C168.137 83.3013 167.93 83.7402 167.741 84.0801C167.561 84.4199 167.382 84.689 167.203 84.8872C167.023 85.0854 166.839 85.2223 166.65 85.2979C166.462 85.3734 166.244 85.4111 165.999 85.4111C165.631 85.4111 165.338 85.2837 165.121 85.0288C164.913 84.7739 164.81 84.4671 164.81 84.1084C164.81 83.7308 164.899 83.2918 165.079 82.7915C165.258 82.2912 165.508 81.7484 165.829 81.1631C166.16 80.5872 166.556 79.9784 167.019 79.3364C167.481 78.7039 167.996 78.0573 168.562 77.3965L170.318 75.1592C169.959 75.4896 169.605 75.7728 169.256 76.0088C168.907 76.2448 168.571 76.4383 168.25 76.5894C167.93 76.731 167.627 76.8348 167.344 76.9009C167.07 76.967 166.83 77 166.622 77C166.244 77 165.895 76.915 165.574 76.7451C165.253 76.5658 164.975 76.3203 164.739 76.0088C164.512 75.6973 164.333 75.3291 164.201 74.9043C164.069 74.4795 164.002 74.0169 164.002 73.5166C164.002 72.4782 164.201 71.5389 164.597 70.6987C165.003 69.8586 165.518 69.1458 166.141 68.5605C166.773 67.9658 167.467 67.508 168.222 67.187C168.987 66.866 169.733 66.7056 170.459 66.7056ZM169.921 69.1978C169.478 69.1978 169.048 69.311 168.633 69.5376C168.217 69.7547 167.849 70.0474 167.528 70.4155C167.207 70.7743 166.952 71.1896 166.764 71.6616C166.575 72.1336 166.48 72.6198 166.48 73.1201C166.48 73.2712 166.49 73.4364 166.509 73.6157C166.537 73.7856 166.589 73.9461 166.665 74.0972C166.75 74.2482 166.868 74.3757 167.019 74.4795C167.179 74.5739 167.396 74.6211 167.67 74.6211C167.868 74.6211 168.099 74.5361 168.364 74.3662C168.638 74.1868 168.916 73.965 169.199 73.7007C169.492 73.4269 169.775 73.1296 170.049 72.8086C170.323 72.4782 170.568 72.1572 170.785 71.8457C171.012 71.5342 171.191 71.2557 171.323 71.0103C171.455 70.7554 171.521 70.5666 171.521 70.4438C171.521 70.2362 171.465 70.0568 171.352 69.9058C171.238 69.7453 171.097 69.6131 170.927 69.5093C170.766 69.4054 170.592 69.3299 170.403 69.2827C170.223 69.2261 170.063 69.1978 169.921 69.1978ZM183.104 68.6455C183.057 68.6361 183.015 68.6313 182.977 68.6313C182.939 68.6313 182.897 68.6313 182.85 68.6313C182.491 68.6313 182.156 68.7021 181.844 68.8438C181.533 68.9854 181.245 69.1742 180.98 69.4102C180.726 69.6367 180.494 69.8963 180.287 70.189C180.088 70.4816 179.909 70.7743 179.749 71.0669C179.588 71.3501 179.451 71.6239 179.338 71.8882C179.234 72.1525 179.154 72.3743 179.097 72.5537C179.428 72.3838 179.767 72.1903 180.117 71.9731C180.475 71.756 180.811 71.5483 181.122 71.3501C181.434 71.1519 181.703 70.9725 181.929 70.812C182.165 70.6515 182.33 70.543 182.425 70.4863C182.85 70.222 183.142 69.9766 183.303 69.75C183.463 69.514 183.543 69.311 183.543 69.1411C183.543 68.9995 183.496 68.8862 183.402 68.8013C183.317 68.7163 183.218 68.6644 183.104 68.6455ZM183.614 66.6914C184.398 66.6914 184.983 66.8802 185.37 67.2578C185.757 67.6354 185.951 68.1593 185.951 68.8296C185.951 69.2261 185.847 69.6414 185.639 70.0757C185.431 70.5099 185.073 70.9536 184.563 71.4067C184.053 71.8504 183.369 72.3083 182.51 72.7803C181.66 73.2428 180.593 73.7101 179.31 74.1821C179.357 74.4559 179.503 74.673 179.749 74.8335C179.994 74.9845 180.32 75.0601 180.726 75.0601C181.16 75.0601 181.622 74.9987 182.113 74.876C182.614 74.7438 183.104 74.5786 183.586 74.3804C184.077 74.1821 184.554 73.9697 185.016 73.7432C185.479 73.5072 185.894 73.2853 186.262 73.0776C186.64 72.87 186.951 72.6906 187.197 72.5396C187.452 72.3885 187.622 72.2941 187.707 72.2563C187.792 72.1997 187.867 72.1667 187.933 72.1572C188.009 72.1478 188.075 72.1431 188.131 72.1431C188.245 72.1431 188.339 72.1714 188.415 72.228C188.49 72.2752 188.551 72.3366 188.599 72.4121C188.655 72.4782 188.693 72.5537 188.712 72.6387C188.731 72.7142 188.74 72.7803 188.74 72.8369C188.74 72.9219 188.731 73.0257 188.712 73.1484C188.693 73.2617 188.622 73.3939 188.5 73.5449C188.452 73.5921 188.292 73.7196 188.018 73.9272C187.754 74.1349 187.409 74.3804 186.984 74.6636C186.56 74.9468 186.064 75.2489 185.498 75.5698C184.941 75.8813 184.346 76.1693 183.713 76.4336C183.09 76.6979 182.439 76.915 181.759 77.085C181.08 77.2643 180.409 77.354 179.749 77.354C179.182 77.354 178.677 77.2454 178.233 77.0283C177.799 76.8112 177.426 76.5186 177.115 76.1504C176.813 75.7822 176.581 75.3574 176.421 74.876C176.26 74.3945 176.18 73.8895 176.18 73.3608C176.18 72.9549 176.26 72.5112 176.421 72.0298C176.581 71.5389 176.813 71.048 177.115 70.5571C177.417 70.0662 177.785 69.5895 178.219 69.127C178.663 68.6549 179.159 68.2396 179.706 67.8809C180.254 67.5221 180.853 67.2342 181.504 67.0171C182.165 66.8 182.868 66.6914 183.614 66.6914ZM191.445 69.127C191.096 69.8066 190.765 70.4722 190.454 71.1235C190.142 71.7655 189.849 72.3602 189.576 72.9077C189.462 73.1343 189.349 73.3986 189.236 73.7007C189.132 73.9933 189.08 74.2529 189.08 74.4795C189.08 74.6117 189.108 74.7155 189.165 74.791C189.231 74.8665 189.335 74.9043 189.477 74.9043C189.675 74.9043 189.925 74.8477 190.227 74.7344C190.529 74.6117 190.855 74.4559 191.204 74.2671C191.553 74.0688 191.922 73.847 192.309 73.6016C192.696 73.3467 193.073 73.0871 193.441 72.8228C193.819 72.549 194.178 72.2799 194.518 72.0156C194.857 71.7419 195.16 71.4917 195.424 71.2651C195.575 71.1613 195.716 71.1094 195.849 71.1094C196.009 71.1094 196.141 71.1802 196.245 71.3218C196.349 71.4634 196.401 71.6427 196.401 71.8599C196.401 72.077 196.349 72.2988 196.245 72.5254C196.141 72.752 195.952 72.9738 195.679 73.1909C195.065 73.7479 194.442 74.2765 193.81 74.7769C193.187 75.2772 192.563 75.7209 191.94 76.1079C191.327 76.4855 190.718 76.7876 190.114 77.0142C189.51 77.2407 188.924 77.354 188.358 77.354C187.98 77.354 187.664 77.3021 187.409 77.1982C187.154 77.1038 186.947 76.9717 186.786 76.8018C186.635 76.6224 186.527 76.4194 186.46 76.1929C186.394 75.9569 186.361 75.7067 186.361 75.4424C186.361 74.9704 186.442 74.4795 186.602 73.9697C186.763 73.46 186.942 73.0021 187.14 72.5962C187.423 72.0109 187.702 71.4303 187.976 70.8545C188.259 70.2786 188.533 69.7264 188.797 69.1978H188.188C187.659 69.1978 187.296 69.1128 187.098 68.9429C186.899 68.7729 186.8 68.5794 186.8 68.3623C186.8 68.2679 186.829 68.1546 186.885 68.0225C186.951 67.8809 187.041 67.7534 187.154 67.6401C187.277 67.5174 187.423 67.4136 187.593 67.3286C187.763 67.2437 187.957 67.2012 188.174 67.2012H189.703L192.691 61.2681C192.88 60.9093 193.111 60.6545 193.385 60.5034C193.668 60.3429 193.961 60.2627 194.263 60.2627C194.546 60.2627 194.806 60.3382 195.042 60.4893C195.278 60.6403 195.396 60.8905 195.396 61.2397C195.396 61.4191 195.353 61.6032 195.268 61.792C195.193 61.9714 195.089 62.1838 194.957 62.4292C194.872 62.5897 194.768 62.7832 194.645 63.0098C194.522 63.2269 194.39 63.4629 194.249 63.7178C194.116 63.9632 193.975 64.2228 193.824 64.4966C193.682 64.7703 193.541 65.0347 193.399 65.2896C193.078 65.8937 192.738 66.5309 192.379 67.2012H196.996C197.222 67.2012 197.43 67.2153 197.619 67.2437C197.807 67.2625 197.968 67.3097 198.1 67.3853C198.242 67.4513 198.35 67.5457 198.426 67.6685C198.501 67.7912 198.539 67.9564 198.539 68.1641C198.539 68.2679 198.52 68.3717 198.482 68.4756C198.454 68.5794 198.393 68.6738 198.298 68.7588C198.213 68.8438 198.091 68.9146 197.93 68.9712C197.779 69.0278 197.581 69.0656 197.335 69.0845L191.445 69.127ZM193.342 74.7627C193.569 74.2812 193.828 73.7479 194.121 73.1626C194.414 72.5679 194.706 71.9826 194.999 71.4067C195.301 70.8215 195.584 70.2692 195.849 69.75C196.113 69.2214 196.335 68.7729 196.514 68.4048L201.187 59.2148C201.244 59.0921 201.329 58.9741 201.442 58.8608C201.565 58.7476 201.701 58.6484 201.853 58.5635C202.004 58.4691 202.164 58.3983 202.334 58.3511C202.504 58.2944 202.674 58.2661 202.844 58.2661C203.259 58.2661 203.547 58.3464 203.708 58.5068C203.868 58.6579 203.948 58.8467 203.948 59.0732C203.948 59.2809 203.896 59.5028 203.792 59.7388C203.689 59.9653 203.571 60.1777 203.438 60.376C203.023 61.084 202.622 61.8014 202.235 62.5283C201.857 63.2458 201.475 63.9727 201.088 64.709C200.71 65.4359 200.328 66.1628 199.941 66.8896C199.554 67.6071 199.148 68.3198 198.723 69.0278C198.987 68.7729 199.266 68.5086 199.559 68.2349C199.861 67.9611 200.186 67.7109 200.536 67.4844C200.885 67.2578 201.267 67.0737 201.683 66.9321C202.098 66.7811 202.561 66.7056 203.07 66.7056C203.372 66.7056 203.66 66.7339 203.934 66.7905C204.208 66.8472 204.449 66.9416 204.656 67.0737C204.864 67.1965 205.029 67.3711 205.152 67.5977C205.275 67.8148 205.336 68.0838 205.336 68.4048C205.336 68.8296 205.27 69.2214 205.138 69.5801C205.015 69.9294 204.854 70.2645 204.656 70.5854C204.458 70.897 204.241 71.1991 204.005 71.4917C203.769 71.7749 203.542 72.0675 203.325 72.3696C203.118 72.6623 202.933 72.9691 202.773 73.29C202.622 73.611 202.528 73.9603 202.49 74.3379C202.49 74.3568 202.485 74.3757 202.476 74.3945C202.476 74.4134 202.476 74.4323 202.476 74.4512C202.476 74.64 202.537 74.758 202.66 74.8052C202.792 74.8524 202.957 74.876 203.155 74.876C203.41 74.876 203.684 74.8288 203.977 74.7344C204.269 74.6305 204.562 74.4984 204.854 74.3379C205.157 74.168 205.454 73.9792 205.747 73.7715C206.049 73.5638 206.332 73.3514 206.596 73.1343C206.87 72.9172 207.12 72.7095 207.347 72.5112C207.573 72.3035 207.767 72.1242 207.927 71.9731C208.012 71.8976 208.102 71.841 208.196 71.8032C208.291 71.7655 208.38 71.7466 208.465 71.7466C208.635 71.7466 208.777 71.8127 208.89 71.9448C209.013 72.0675 209.074 72.2375 209.074 72.4546C209.074 72.6528 209.003 72.8794 208.862 73.1343C208.73 73.3892 208.498 73.644 208.168 73.8989C207.649 74.3521 207.12 74.7863 206.582 75.2017C206.044 75.617 205.501 75.9852 204.954 76.3062C204.406 76.6271 203.859 76.882 203.311 77.0708C202.773 77.2596 202.244 77.354 201.725 77.354C201.055 77.354 200.517 77.203 200.111 76.9009C199.705 76.5894 199.502 76.1032 199.502 75.4424C199.502 74.9609 199.582 74.5078 199.743 74.083C199.913 73.6488 200.116 73.2334 200.352 72.8369C200.597 72.431 200.857 72.0439 201.13 71.6758C201.404 71.2982 201.645 70.93 201.853 70.5713C201.966 70.4108 202.051 70.2645 202.107 70.1323C202.174 69.9907 202.207 69.8397 202.207 69.6792C202.207 69.5376 202.169 69.4243 202.093 69.3394C202.018 69.245 201.9 69.1978 201.739 69.1978C201.182 69.1978 200.668 69.3346 200.196 69.6084C199.724 69.8822 199.29 70.2314 198.893 70.6562C198.497 71.0811 198.128 71.5483 197.789 72.0581C197.449 72.5584 197.132 73.0399 196.84 73.5024C196.708 73.7101 196.571 73.9508 196.429 74.2246C196.297 74.4889 196.155 74.7627 196.004 75.0459C195.863 75.3291 195.712 75.6123 195.551 75.8955C195.391 76.1693 195.221 76.4147 195.042 76.6318C194.872 76.849 194.688 77.0236 194.489 77.1558C194.3 77.2879 194.102 77.354 193.895 77.354C193.564 77.354 193.309 77.2549 193.13 77.0566C192.951 76.8678 192.861 76.6271 192.861 76.3345C192.861 76.1174 192.899 75.8908 192.974 75.6548C193.05 75.4093 193.172 75.112 193.342 74.7627ZM213.266 68.6455C213.218 68.6361 213.176 68.6313 213.138 68.6313C213.1 68.6313 213.058 68.6313 213.011 68.6313C212.652 68.6313 212.317 68.7021 212.005 68.8438C211.694 68.9854 211.406 69.1742 211.142 69.4102C210.887 69.6367 210.655 69.8963 210.448 70.189C210.25 70.4816 210.07 70.7743 209.91 71.0669C209.749 71.3501 209.612 71.6239 209.499 71.8882C209.395 72.1525 209.315 72.3743 209.258 72.5537C209.589 72.3838 209.929 72.1903 210.278 71.9731C210.637 71.756 210.972 71.5483 211.283 71.3501C211.595 71.1519 211.864 70.9725 212.09 70.812C212.326 70.6515 212.492 70.543 212.586 70.4863C213.011 70.222 213.303 69.9766 213.464 69.75C213.624 69.514 213.705 69.311 213.705 69.1411C213.705 68.9995 213.657 68.8862 213.563 68.8013C213.478 68.7163 213.379 68.6644 213.266 68.6455ZM213.775 66.6914C214.559 66.6914 215.144 66.8802 215.531 67.2578C215.918 67.6354 216.112 68.1593 216.112 68.8296C216.112 69.2261 216.008 69.6414 215.8 70.0757C215.593 70.5099 215.234 70.9536 214.724 71.4067C214.214 71.8504 213.53 72.3083 212.671 72.7803C211.821 73.2428 210.755 73.7101 209.471 74.1821C209.518 74.4559 209.664 74.673 209.91 74.8335C210.155 74.9845 210.481 75.0601 210.887 75.0601C211.321 75.0601 211.784 74.9987 212.274 74.876C212.775 74.7438 213.266 74.5786 213.747 74.3804C214.238 74.1821 214.715 73.9697 215.177 73.7432C215.64 73.5072 216.055 73.2853 216.423 73.0776C216.801 72.87 217.112 72.6906 217.358 72.5396C217.613 72.3885 217.783 72.2941 217.868 72.2563C217.953 72.1997 218.028 72.1667 218.094 72.1572C218.17 72.1478 218.236 72.1431 218.292 72.1431C218.406 72.1431 218.5 72.1714 218.576 72.228C218.651 72.2752 218.713 72.3366 218.76 72.4121C218.816 72.4782 218.854 72.5537 218.873 72.6387C218.892 72.7142 218.901 72.7803 218.901 72.8369C218.901 72.9219 218.892 73.0257 218.873 73.1484C218.854 73.2617 218.783 73.3939 218.661 73.5449C218.613 73.5921 218.453 73.7196 218.179 73.9272C217.915 74.1349 217.57 74.3804 217.146 74.6636C216.721 74.9468 216.225 75.2489 215.659 75.5698C215.102 75.8813 214.507 76.1693 213.875 76.4336C213.251 76.6979 212.6 76.915 211.92 77.085C211.241 77.2643 210.57 77.354 209.91 77.354C209.343 77.354 208.838 77.2454 208.395 77.0283C207.96 76.8112 207.587 76.5186 207.276 76.1504C206.974 75.7822 206.743 75.3574 206.582 74.876C206.422 74.3945 206.341 73.8895 206.341 73.3608C206.341 72.9549 206.422 72.5112 206.582 72.0298C206.743 71.5389 206.974 71.048 207.276 70.5571C207.578 70.0662 207.946 69.5895 208.38 69.127C208.824 68.6549 209.32 68.2396 209.867 67.8809C210.415 67.5221 211.014 67.2342 211.666 67.0171C212.326 66.8 213.03 66.6914 213.775 66.6914ZM222.328 68.7446C222.696 68.5181 223.074 68.3104 223.461 68.1216C223.857 67.9328 224.24 67.7723 224.608 67.6401C224.976 67.4985 225.325 67.39 225.656 67.3145C225.996 67.2295 226.298 67.187 226.562 67.187C226.987 67.187 227.312 67.2909 227.539 67.4985C227.775 67.6968 227.893 68.0366 227.893 68.5181C227.893 68.6219 227.888 68.7352 227.879 68.8579C227.869 68.9712 227.851 69.0939 227.822 69.2261C227.775 69.4715 227.633 69.7594 227.397 70.0898C227.161 70.4202 226.883 70.7648 226.562 71.1235C226.25 71.4823 225.911 71.8457 225.542 72.2139C225.184 72.5726 224.849 72.9077 224.537 73.2192C224.235 73.5213 223.98 73.7856 223.772 74.0122C223.574 74.2388 223.475 74.3945 223.475 74.4795C223.475 74.555 223.48 74.6069 223.489 74.6353C223.499 74.6636 223.541 74.6777 223.617 74.6777C224.126 74.4606 224.693 74.201 225.316 73.8989C225.948 73.5874 226.576 73.2712 227.199 72.9502C227.822 72.6292 228.412 72.3177 228.969 72.0156C229.526 71.7041 229.998 71.4351 230.385 71.2085C230.47 71.1613 230.555 71.1235 230.64 71.0952C230.735 71.0575 230.819 71.0386 230.895 71.0386C231.065 71.0386 231.207 71.0952 231.32 71.2085C231.433 71.3218 231.49 71.4728 231.49 71.6616C231.49 71.8787 231.395 72.1289 231.207 72.4121C231.027 72.6859 230.72 72.9738 230.286 73.2759C229.956 73.4836 229.583 73.7196 229.167 73.9839C228.762 74.2388 228.332 74.5078 227.879 74.791C227.435 75.0648 226.982 75.3338 226.52 75.5981C226.066 75.8625 225.627 76.0985 225.203 76.3062C224.778 76.5138 224.377 76.6838 223.999 76.8159C223.631 76.9386 223.31 77 223.036 77C222.385 77 221.894 76.8442 221.563 76.5327C221.243 76.2212 221.082 75.82 221.082 75.3291C221.082 75.2536 221.087 75.1969 221.096 75.1592C221.162 74.7438 221.285 74.3426 221.464 73.9556C221.644 73.5685 221.847 73.2004 222.073 72.8511C222.3 72.5018 222.536 72.1714 222.781 71.8599C223.027 71.5389 223.249 71.2415 223.447 70.9678C223.654 70.6846 223.824 70.425 223.957 70.189C224.089 69.953 224.155 69.7358 224.155 69.5376C224.155 69.4904 224.145 69.4432 224.126 69.396C224.108 69.3488 224.065 69.3252 223.999 69.3252C223.886 69.3252 223.697 69.3677 223.433 69.4526C223.178 69.5376 222.904 69.6509 222.611 69.7925C222.319 69.9341 222.04 70.0993 221.776 70.2881C221.512 70.4674 221.323 70.661 221.209 70.8687C221.058 71.133 220.884 71.4681 220.686 71.874C220.487 72.2799 220.28 72.7048 220.062 73.1484C219.855 73.5921 219.652 74.0311 219.454 74.4653C219.255 74.8996 219.085 75.2725 218.944 75.584C218.831 75.8577 218.68 76.1032 218.491 76.3203C218.311 76.5374 218.113 76.7215 217.896 76.8726C217.679 77.0236 217.457 77.1416 217.23 77.2266C217.004 77.3115 216.796 77.354 216.607 77.354C216.39 77.354 216.216 77.2974 216.083 77.1841C215.961 77.0708 215.899 76.8867 215.899 76.6318C215.899 76.528 215.914 76.4006 215.942 76.2495C215.98 76.089 216.05 75.9144 216.154 75.7256C216.324 75.4046 216.494 75.0553 216.664 74.6777C216.843 74.3001 217.046 73.8706 217.273 73.3892C217.5 72.8983 217.759 72.3413 218.052 71.7183C218.354 71.0858 218.708 70.3589 219.114 69.5376C218.982 69.4243 218.868 69.2874 218.774 69.127C218.689 68.957 218.646 68.7493 218.646 68.5039C218.646 68.2773 218.694 68.0838 218.788 67.9233C218.882 67.7534 219.01 67.6165 219.17 67.5127C219.331 67.4089 219.515 67.3333 219.723 67.2861C219.94 67.2295 220.166 67.2012 220.402 67.2012C220.648 67.2012 220.893 67.2248 221.139 67.272C221.384 67.3097 221.601 67.3711 221.79 67.4561C221.988 67.541 222.149 67.6449 222.271 67.7676C222.394 67.8903 222.456 68.0319 222.456 68.1924C222.456 68.2207 222.446 68.2585 222.427 68.3057C222.408 68.3529 222.385 68.4048 222.356 68.4614C222.338 68.5181 222.319 68.57 222.3 68.6172C222.281 68.6644 222.271 68.7021 222.271 68.7305C222.271 68.7493 222.276 68.7588 222.286 68.7588H222.3L222.328 68.7446Z" fill="#07B04C"/>
</g>
<defs>
<clipPath id="clip0_2_73">
<rect width="265.51" height="88" fill="white"/>
</clipPath>
</defs>
</svg>
