<svg xmlns="http://www.w3.org/2000/svg" version="1.1" xmlns:xlink="http://www.w3.org/1999/xlink" xmlns:svgjs="http://svgjs.dev/svgjs" width="1500" height="1500" viewBox="0 0 1500 1500"><rect width="1500" height="1500" fill="#000000"></rect><g transform="matrix(0.6666666666666666,0,0,0.6666666666666666,249.39393939393938,435.99032258064517)"><svg viewBox="0 0 396 248" data-background-color="#00784a" preserveAspectRatio="xMidYMid meet" height="939" width="1500" xmlns="http://www.w3.org/2000/svg" xmlns:xlink="http://www.w3.org/1999/xlink"><g id="tight-bounds" transform="matrix(1,0,0,1,0.2400000000000091,0.4000000000000057)"><svg viewBox="0 0 395.52 247.2" height="247.2" width="395.52"><g><svg></svg></g><g><svg viewBox="0 0 395.52 247.2" height="247.2" width="395.52"><mask id="1d86317d-bc7d-40e4-b538-231d9b9c5a52"><rect width="640" height="400" fill="white"></rect><g transform="matrix(1,0,0,1,39.55199999999999,65.00411145979648)"><svg viewBox="0 0 316.416 117.19177708040704" height="117.19177708040704" width="316.416"><g><svg viewBox="0 0 316.416 117.19177708040704" height="117.19177708040704" width="316.416"><g><svg viewBox="0 0 316.416 117.19177708040704" height="117.19177708040704" width="316.416"><g><svg viewBox="0 0 316.416 117.19177708040704" height="117.19177708040704" width="316.416"><g id="SvgjsG4744"><svg viewBox="0 0 316.416 117.19177708040704" height="117.19177708040704" width="316.416" id="SvgjsSvg4743"><g><svg viewBox="0 0 316.416 77.00866719118802" height="77.00866719118802" width="316.416"><g transform="matrix(1,0,0,1,0,0)"><svg width="316.416" viewBox="-3.5 -41.5 191.64 47.4" height="77.00866719118802" data-palette-color="#fffafe"><path d="M25.75-27.7L19.75-2.45Q19.5-1.6 20.08-1.28 20.65-0.95 21.25-0.95L21.25-0.95 21.25 0 9.5 0 9.5-0.95Q9.95-0.95 10.45-1.18 10.95-1.4 10.95-2L10.95-2Q10.95-2.25 10.9-2.4L10.9-2.4 1.5-36.05Q1.4-36.55 0.5-36.55L0.5-36.55 0.5-37.5 10.25-37.5 10.25-36.55Q9.65-36.55 9.35-36.23 9.05-35.9 9.1-35.55L9.1-35.55 15.35-10 21.15-35.05Q21.2-35.2 21.2-35.45L21.2-35.45Q21.2-36.05 20.65-36.3 20.1-36.55 19.6-36.55L19.6-36.55 19.6-37.5 31.5-37.5 31.5-36.55Q30.9-36.55 30.3-36.23 29.7-35.9 29.95-35.05L29.95-35.05 35.65-11.2 40.55-35.55Q40.65-35.85 40.08-36.2 39.5-36.55 38.85-36.55L38.85-36.55 38.85-37.5 49.5-37.5 49.5-36.55Q48.65-36.55 48.5-36.05L48.5-36.05 39.25-2.4Q39.2-2.25 39.2-2L39.2-2Q39.2-1.4 39.68-1.18 40.15-0.95 40.6-0.95L40.6-0.95 40.6 0 29.7 0 29.7-0.95Q30.25-0.95 30.83-1.28 31.4-1.6 31.2-2.45L31.2-2.45 25.75-27.7ZM64.25 0.6Q60.55 0.6 57.72-0.98 54.9-2.55 53.32-5.3 51.75-8.05 51.75-11.5L51.75-11.5Q51.75-14.9 53.32-17.7 54.9-20.5 57.75-22.13 60.6-23.75 64.25-23.75L64.25-23.75Q67.75-23.75 70.6-22.18 73.45-20.6 75.1-17.82 76.75-15.05 76.75-11.5L76.75-11.5Q76.75-8.4 75.27-5.63 73.8-2.85 70.95-1.13 68.1 0.6 64.25 0.6L64.25 0.6ZM64.25-5.15Q67.2-5.15 69.02-6.88 70.85-8.6 70.85-11.35L70.85-11.35Q70.85-14.2 69.02-16.05 67.2-17.9 64.25-17.9L64.25-17.9Q61.5-17.9 59.65-16.07 57.8-14.25 57.8-11.5L57.8-11.5Q57.8-8.6 59.65-6.88 61.5-5.15 64.25-5.15L64.25-5.15ZM124.34-36L124.34-1.5Q124.34-1.25 124.72-1.1 125.09-0.95 125.5-0.95L125.5-0.95 125.5 0 116.75 0 116.75-0.95Q117.15-0.95 117.52-1.1 117.9-1.25 117.9-1.5L117.9-1.5 117.9-30.15 103.25 1.9 88.65-30.25 88.65-1.5Q88.65-1.25 89.02-1.1 89.4-0.95 89.8-0.95L89.8-0.95 89.8 0 81 0 81-0.95Q81.4-0.95 81.77-1.1 82.15-1.25 82.15-1.5L82.15-1.5 82.15-36Q82.15-36.25 81.77-36.4 81.4-36.55 81.05-36.55L81.05-36.55 81.05-37.5 93.95-37.5 93.95-36.55Q93.34-36.55 93.17-36.27 93-36 93.15-35.65L93.15-35.65 103.3-12.05 113.59-35.65Q113.7-35.95 113.3-36.25 112.9-36.55 112.3-36.55L112.3-36.55 112.3-37.5 125.45-37.5 125.45-36.55Q125.09-36.55 124.72-36.4 124.34-36.25 124.34-36L124.34-36ZM157.34-23L157.34-22.05Q156.99-22.05 156.62-21.9 156.24-21.75 156.24-21.5L156.24-21.5 156.24-1.5Q156.24-1.25 156.62-1.1 156.99-0.95 157.34-0.95L157.34-0.95 157.34 0 149.94 0 149.94-2.75Q146.79 0.65 141.99 0.65L141.99 0.65Q138.34 0.65 135.57-0.83 132.79-2.3 131.27-5.05 129.74-7.8 129.74-11.45L129.74-11.45Q129.74-15 131.42-17.78 133.09-20.55 135.89-22.08 138.69-23.6 141.99-23.6L141.99-23.6Q146.79-23.6 149.94-19.9L149.94-19.9 149.94-23 157.34-23ZM142.74-4.65Q144.79-4.65 146.42-5.58 148.04-6.5 148.94-8.03 149.84-9.55 149.84-11.3L149.84-11.3Q149.84-14.3 147.87-16.25 145.89-18.2 142.74-18.2L142.74-18.2Q139.69-18.2 137.72-16.3 135.74-14.4 135.74-11.45L135.74-11.45Q135.74-8.35 137.77-6.5 139.79-4.65 142.74-4.65L142.74-4.65ZM163.09-36Q163.09-36.25 162.72-36.4 162.34-36.55 161.94-36.55L161.94-36.55 161.94-37.5 170.74-37.5 170.74-36.55Q170.34-36.55 169.97-36.4 169.59-36.25 169.59-36L169.59-36 169.59-1.5Q169.59-1.25 169.97-1.1 170.34-0.95 170.74-0.95L170.74-0.95 170.74 0 161.94 0 161.94-0.95Q162.34-0.95 162.72-1.1 163.09-1.25 163.09-1.5L163.09-1.5 163.09-36ZM176.49-36Q176.49-36.25 176.11-36.4 175.74-36.55 175.34-36.55L175.34-36.55 175.34-37.5 184.14-37.5 184.14-36.55Q183.74-36.55 183.36-36.4 182.99-36.25 182.99-36L182.99-36 182.99-1.5Q182.99-1.25 183.36-1.1 183.74-0.95 184.14-0.95L184.14-0.95 184.14 0 175.34 0 175.34-0.95Q175.74-0.95 176.11-1.1 176.49-1.25 176.49-1.5L176.49-1.5 176.49-36Z" opacity="1" transform="matrix(1,0,0,1,0,0)" fill="black" class="wordmark-text-0" id="SvgjsPath4742" stroke-width="7" stroke="black" stroke-linejoin="round"></path></svg></g></svg></g><g transform="matrix(1,0,0,1,3.5,92.44590826367897)"><svg viewBox="0 0 309.416 24.745868816728052" height="24.745868816728052" width="309.416"><g transform="matrix(1,0,0,1,0,0)"><svg width="309.416" viewBox="-2.9 -40.23 671.28 54.61" height="24.745868816728052" data-palette-color="#fffafe"><path d="M32.25-34.4L18.97-14.26 18.97 0 14.33 0 14.33-14.26 1.1-34.4 6.23-34.4 16.7-18.02 27.12-34.4 32.25-34.4ZM54.47-13.23L54.47-13.23Q54.47-6.3 51.42-2.91 48.36 0.49 42.55 0.49L42.55 0.49Q36.77 0.49 33.81-3.04 30.86-6.57 30.86-13.23L30.86-13.23Q30.86-20.07 33.83-23.49 36.79-26.9 42.7-26.9L42.7-26.9Q48.75-26.9 51.61-23.57 54.47-20.24 54.47-13.23ZM49.85-13.23L49.85-13.23Q49.85-18.7 48.23-21.18 46.61-23.66 42.77-23.66L42.77-23.66Q38.92-23.66 37.19-21.13 35.47-18.6 35.47-13.23L35.47-13.23Q35.47-8.01 37.17-5.38 38.87-2.76 42.5-2.76L42.5-2.76Q46.46-2.76 48.16-5.3 49.85-7.84 49.85-13.23ZM76.71-4.52L76.64-4.52Q75.12-1.78 73.13-0.65 71.14 0.49 68.19 0.49L68.19 0.49Q63.84 0.49 61.83-1.67 59.81-3.83 59.81-8.81L59.81-8.81 59.81-26.42 64.23-26.42 64.23-9.67Q64.23-5.71 65.47-4.31 66.7-2.91 69.68-2.91L69.68-2.91Q72.85-2.91 74.68-5.08 76.51-7.25 76.51-11.11L76.51-11.11 76.51-26.42 80.91-26.42 80.91-5.64Q80.91-3.34 80.94-1.93 80.98-0.51 81.05 0L81.05 0 76.9 0Q76.88-0.12 76.82-1.15 76.76-2.17 76.71-4.52L76.71-4.52ZM92.24-13.77L92.24-13.77 92.24 0 87.84 0 87.84-20.26Q87.84-21.66 87.81-23.19 87.77-24.73 87.7-26.42L87.7-26.42 91.85-26.42Q91.89-25.29 91.93-24.39 91.97-23.49 91.99-22.81 92.02-22.14 92.03-21.69 92.04-21.24 92.04-21.02L92.04-21.02 92.14-21.02Q92.87-23.41 93.75-24.73L93.75-24.73Q94.6-25.95 95.7-26.43 96.8-26.9 98.41-26.9L98.41-26.9Q99.32-26.9 100.2-26.66L100.2-26.66 100.2-22.63Q99.37-22.88 97.85-22.88L97.85-22.88Q95.12-22.88 93.68-20.52 92.24-18.16 92.24-13.77ZM119.53-34.4L124.19-34.4 124.19 0 119.53 0 119.53-34.4ZM136.65-15.31L136.65-15.31 136.65 0 132.28 0 132.28-20.78Q132.28-23.1 132.24-24.5 132.2-25.9 132.13-26.42L132.13-26.42 136.28-26.42Q136.33-25.88 136.38-25.1 136.43-24.32 136.45-23.47 136.47-22.63 136.47-21.9L136.47-21.9 136.55-21.9Q137.96-24.71 139.79-25.81 141.63-26.9 144.26-26.9L144.26-26.9Q147.27-26.9 149.01-25.71 150.76-24.51 151.44-21.9L151.44-21.9 151.51-21.9Q152.88-24.56 154.82-25.73 156.76-26.9 159.52-26.9L159.52-26.9Q163.53-26.9 165.34-24.73 167.16-22.56 167.16-17.6L167.16-17.6 167.16 0 162.82 0 162.82-16.75Q162.82-20.58 161.77-22.05 160.72-23.51 157.98-23.51L157.98-23.51Q155.1-23.51 153.5-21.37 151.9-19.24 151.9-15.31L151.9-15.31 151.9 0 147.56 0 147.56-16.75Q147.56-20.58 146.51-22.05 145.46-23.51 142.72-23.51L142.72-23.51Q139.92-23.51 138.28-21.36 136.65-19.21 136.65-15.31ZM196.17-13.33L196.17-13.33Q196.17-6.42 193.74-2.97 191.31 0.49 186.45 0.49L186.45 0.49Q180.35 0.49 178.25-4.1L178.25-4.1 178.13-4.1Q178.22-3.93 178.22 0.05L178.22 0.05 178.22 10.38 173.83 10.38 173.83-21.02Q173.83-23.05 173.79-24.4 173.75-25.76 173.68-26.42L173.68-26.42 177.93-26.42Q177.95-26.32 178.02-25.46 178.08-24.61 178.13-23.62 178.17-22.63 178.17-22.17L178.17-22.17 178.27-22.17Q179.44-24.61 181.37-25.74 183.3-26.88 186.45-26.88L186.45-26.88Q191.33-26.88 193.75-23.61 196.17-20.34 196.17-13.33ZM191.55-13.23L191.55-13.23Q191.55-18.75 190.06-21.12 188.57-23.49 185.33-23.49L185.33-23.49Q181.71-23.49 179.97-20.98 178.22-18.48 178.22-12.89L178.22-12.89Q178.22-7.69 179.88-5.22 181.54-2.76 185.28-2.76L185.28-2.76Q188.55-2.76 190.05-5.16 191.55-7.57 191.55-13.23ZM223.97-13.23L223.97-13.23Q223.97-6.3 220.92-2.91 217.87 0.49 212.06 0.49L212.06 0.49Q206.27 0.49 203.32-3.04 200.37-6.57 200.37-13.23L200.37-13.23Q200.37-20.07 203.33-23.49 206.3-26.9 212.21-26.9L212.21-26.9Q218.26-26.9 221.12-23.57 223.97-20.24 223.97-13.23ZM219.36-13.23L219.36-13.23Q219.36-18.7 217.74-21.18 216.11-23.66 212.28-23.66L212.28-23.66Q208.42-23.66 206.7-21.13 204.98-18.6 204.98-13.23L204.98-13.23Q204.98-8.01 206.68-5.38 208.37-2.76 212.01-2.76L212.01-2.76Q215.97-2.76 217.66-5.3 219.36-7.84 219.36-13.23ZM233.94-13.77L233.94-13.77 233.94 0 229.54 0 229.54-20.26Q229.54-21.66 229.5-23.19 229.47-24.73 229.39-26.42L229.39-26.42 233.54-26.42Q233.59-25.29 233.63-24.39 233.67-23.49 233.69-22.81 233.72-22.14 233.73-21.69 233.74-21.24 233.74-21.02L233.74-21.02 233.84-21.02Q234.57-23.41 235.45-24.73L235.45-24.73Q236.3-25.95 237.4-26.43 238.5-26.9 240.11-26.9L240.11-26.9Q241.02-26.9 241.89-26.66L241.89-26.66 241.89-22.63Q241.06-22.88 239.55-22.88L239.55-22.88Q236.82-22.88 235.38-20.52 233.94-18.16 233.94-13.77ZM256.25-3.44L256.25-0.2Q254.1 0.39 251.81 0.39L251.81 0.39Q249.17 0.39 247.85-1.11 246.53-2.61 246.53-5.59L246.53-5.59 246.53-23.22 243.48-23.22 243.48-26.42 246.7-26.42 248-32.32 250.93-32.32 250.93-26.42 255.81-26.42 255.81-23.22 250.93-23.22 250.93-6.54Q250.93-4.64 251.55-3.87 252.17-3.1 253.71-3.1L253.71-3.1Q254.54-3.1 256.25-3.44L256.25-3.44ZM280.62 0.49L280.62 0.49Q276.64 0.49 274.63-1.61 272.63-3.71 272.63-7.37L272.63-7.37Q272.63-11.47 275.33-13.67 278.03-15.87 284.03-16.02L284.03-16.02 289.97-16.11 289.97-17.55Q289.97-20.78 288.6-22.17 287.23-23.56 284.3-23.56L284.3-23.56Q281.35-23.56 280-22.56 278.66-21.56 278.39-19.36L278.39-19.36 273.8-19.78Q274.93-26.9 284.4-26.9L284.4-26.9Q289.38-26.9 291.89-24.62 294.41-22.34 294.41-18.02L294.41-18.02 294.41-6.64Q294.41-4.69 294.92-3.7 295.43-2.71 296.88-2.71L296.88-2.71Q297.56-2.71 298.32-2.88L298.32-2.88 298.32-0.15Q297.49 0.05 296.63 0.15 295.78 0.24 294.92 0.24L294.92 0.24Q292.48 0.24 291.37-1.04 290.26-2.32 290.11-5.05L290.11-5.05 289.97-5.05Q288.28-2.03 286.05-0.77 283.81 0.49 280.62 0.49ZM289.97-10.86L289.97-13.04 285.16-12.94Q282.08-12.92 280.47-12.3L280.47-12.3Q278.86-11.72 278-10.5 277.15-9.28 277.15-7.3L277.15-7.3Q277.15-5.15 278.31-3.98 279.47-2.81 281.62-2.81L281.62-2.81Q284.06-2.81 285.91-3.91L285.91-3.91Q287.79-5 288.88-6.92 289.97-8.84 289.97-10.86L289.97-10.86ZM306.18-15.31L306.18-15.31 306.18 0 301.78 0 301.78-20.78Q301.78-23.1 301.75-24.5 301.71-25.9 301.64-26.42L301.64-26.42 305.79-26.42Q305.83-25.95 305.87-25.24 305.91-24.54 305.93-23.68 305.96-22.83 305.98-21.9L305.98-21.9 306.05-21.9Q307.57-24.63 309.56-25.77 311.55-26.9 314.5-26.9L314.5-26.9Q318.85-26.9 320.86-24.68 322.88-22.46 322.88-17.6L322.88-17.6 322.88 0 318.46 0 318.46-16.75Q318.46-20.53 317.24-22.02 316.02-23.51 313.01-23.51L313.01-23.51Q309.84-23.51 308.01-21.34 306.18-19.17 306.18-15.31ZM350.71 0L346.51 0Q346.46-0.27 346.4-1.01 346.34-1.76 346.3-2.66 346.26-3.56 346.26-4.25L346.26-4.25 346.17-4.25Q344.95-1.71 342.93-0.61 340.92 0.49 337.94 0.49L337.94 0.49Q332.93 0.49 330.58-2.88 328.22-6.25 328.22-13.09L328.22-13.09Q328.22-20 330.65-23.45 333.08-26.9 337.94-26.9L337.94-26.9Q340.94-26.9 342.94-25.81 344.95-24.71 346.17-22.31L346.17-22.31 346.22-22.31 346.17-25.27 346.17-36.23 350.56-36.23 350.56-5.44Q350.56-3.37 350.6-2.01 350.63-0.66 350.71 0L350.71 0ZM332.84-13.23L332.84-13.23Q332.84-7.69 334.3-5.3 335.77-2.91 339.06-2.91L339.06-2.91Q342.8-2.91 344.48-5.49 346.17-8.08 346.17-13.53L346.17-13.53Q346.17-18.77 344.48-21.22 342.8-23.66 339.11-23.66L339.11-23.66Q335.79-23.66 334.31-21.2 332.84-18.75 332.84-13.23ZM376.59-3.81L399.02-3.81 399.02 0 371.92 0 371.92-34.4 398.02-34.4 398.02-30.59 376.59-30.59 376.59-19.56 396.56-19.56 396.56-15.8 376.59-15.8 376.59-3.81ZM420.73 0L413.62-10.84 406.47 0 401.73 0 411.13-13.57 402.17-26.42 407.03-26.42 413.62-16.14 420.17-26.42 425.07-26.42 416.11-13.62 425.63 0 420.73 0ZM451.88-13.33L451.88-13.33Q451.88-6.42 449.45-2.97 447.02 0.49 442.16 0.49L442.16 0.49Q436.06 0.49 433.96-4.1L433.96-4.1 433.84-4.1Q433.94-3.93 433.94 0.05L433.94 0.05 433.94 10.38 429.54 10.38 429.54-21.02Q429.54-23.05 429.5-24.4 429.47-25.76 429.39-26.42L429.39-26.42 433.64-26.42Q433.67-26.32 433.73-25.46 433.79-24.61 433.84-23.62 433.89-22.63 433.89-22.17L433.89-22.17 433.98-22.17Q435.16-24.61 437.08-25.74 439.01-26.88 442.16-26.88L442.16-26.88Q447.05-26.88 449.46-23.61 451.88-20.34 451.88-13.33ZM447.27-13.23L447.27-13.23Q447.27-18.75 445.78-21.12 444.29-23.49 441.04-23.49L441.04-23.49Q437.43-23.49 435.68-20.98 433.94-18.48 433.94-12.89L433.94-12.89Q433.94-7.69 435.6-5.22 437.26-2.76 440.99-2.76L440.99-2.76Q444.26-2.76 445.76-5.16 447.27-7.57 447.27-13.23ZM479.69-13.23L479.69-13.23Q479.69-6.3 476.64-2.91 473.58 0.49 467.77 0.49L467.77 0.49Q461.99 0.49 459.03-3.04 456.08-6.57 456.08-13.23L456.08-13.23Q456.08-20.07 459.05-23.49 462.01-26.9 467.92-26.9L467.92-26.9Q473.97-26.9 476.83-23.57 479.69-20.24 479.69-13.23ZM475.07-13.23L475.07-13.23Q475.07-18.7 473.45-21.18 471.83-23.66 467.99-23.66L467.99-23.66Q464.14-23.66 462.41-21.13 460.69-18.6 460.69-13.23L460.69-13.23Q460.69-8.01 462.39-5.38 464.09-2.76 467.72-2.76L467.72-2.76Q471.68-2.76 473.38-5.3 475.07-7.84 475.07-13.23ZM489.65-13.77L489.65-13.77 489.65 0 485.25 0 485.25-20.26Q485.25-21.66 485.22-23.19 485.18-24.73 485.11-26.42L485.11-26.42 489.26-26.42Q489.31-25.29 489.34-24.39 489.38-23.49 489.4-22.81 489.43-22.14 489.44-21.69 489.45-21.24 489.45-21.02L489.45-21.02 489.55-21.02Q490.28-23.41 491.16-24.73L491.16-24.73Q492.02-25.95 493.12-26.43 494.21-26.9 495.83-26.9L495.83-26.9Q496.73-26.9 497.61-26.66L497.61-26.66 497.61-22.63Q496.78-22.88 495.26-22.88L495.26-22.88Q492.53-22.88 491.09-20.52 489.65-18.16 489.65-13.77ZM511.96-3.44L511.96-0.2Q509.81 0.39 507.52 0.39L507.52 0.39Q504.88 0.39 503.56-1.11 502.25-2.61 502.25-5.59L502.25-5.59 502.25-23.22 499.19-23.22 499.19-26.42 502.42-26.42 503.71-32.32 506.64-32.32 506.64-26.42 511.52-26.42 511.52-23.22 506.64-23.22 506.64-6.54Q506.64-4.64 507.26-3.87 507.89-3.1 509.42-3.1L509.42-3.1Q510.25-3.1 511.96-3.44L511.96-3.44ZM550.81 0L546.61 0Q546.56-0.27 546.5-1.01 546.44-1.76 546.4-2.66 546.36-3.56 546.36-4.25L546.36-4.25 546.26-4.25Q545.04-1.71 543.03-0.61 541.02 0.49 538.04 0.49L538.04 0.49Q533.03 0.49 530.68-2.88 528.32-6.25 528.32-13.09L528.32-13.09Q528.32-20 530.75-23.45 533.18-26.9 538.04-26.9L538.04-26.9Q541.04-26.9 543.04-25.81 545.04-24.71 546.26-22.31L546.26-22.31 546.31-22.31 546.26-25.27 546.26-36.23 550.66-36.23 550.66-5.44Q550.66-3.37 550.7-2.01 550.73-0.66 550.81 0L550.81 0ZM532.93-13.23L532.93-13.23Q532.93-7.69 534.4-5.3 535.86-2.91 539.16-2.91L539.16-2.91Q542.9-2.91 544.58-5.49 546.26-8.08 546.26-13.53L546.26-13.53Q546.26-18.77 544.58-21.22 542.9-23.66 539.21-23.66L539.21-23.66Q535.89-23.66 534.41-21.2 532.93-18.75 532.93-13.23ZM579.61-12.28L560.77-12.28Q560.77-7.74 562.65-5.27 564.53-2.81 568.14-2.81L568.14-2.81Q571-2.81 572.72-3.96 574.44-5.1 575.05-6.86L575.05-6.86 578.91-5.76Q576.54 0.49 568.14 0.49L568.14 0.49Q562.28 0.49 559.22-3 556.15-6.49 556.15-13.38L556.15-13.38Q556.15-19.92 559.22-23.41 562.28-26.9 567.97-26.9L567.97-26.9Q573.8-26.9 576.71-23.39 579.61-19.87 579.61-12.87L579.61-12.87 579.61-12.28ZM560.82-15.65L575.07-15.65Q574.71-19.82 572.95-21.74 571.19-23.66 567.9-23.66L567.9-23.66Q564.7-23.66 562.83-21.52 560.96-19.38 560.82-15.65L560.82-15.65ZM591.94 0.49L591.94 0.49Q587.96 0.49 585.96-1.61 583.96-3.71 583.96-7.37L583.96-7.37Q583.96-11.47 586.66-13.67 589.36-15.87 595.36-16.02L595.36-16.02 601.29-16.11 601.29-17.55Q601.29-20.78 599.93-22.17 598.56-23.56 595.63-23.56L595.63-23.56Q592.68-23.56 591.33-22.56 589.99-21.56 589.72-19.36L589.72-19.36 585.13-19.78Q586.25-26.9 595.73-26.9L595.73-26.9Q600.71-26.9 603.22-24.62 605.74-22.34 605.74-18.02L605.74-18.02 605.74-6.64Q605.74-4.69 606.25-3.7 606.76-2.71 608.2-2.71L608.2-2.71Q608.89-2.71 609.64-2.88L609.64-2.88 609.64-0.15Q608.81 0.05 607.96 0.15 607.1 0.24 606.25 0.24L606.25 0.24Q603.81 0.24 602.7-1.04 601.59-2.32 601.44-5.05L601.44-5.05 601.29-5.05Q599.61-2.03 597.38-0.77 595.14 0.49 591.94 0.49ZM601.29-10.86L601.29-13.04 596.48-12.94Q593.41-12.92 591.8-12.3L591.8-12.3Q590.19-11.72 589.33-10.5 588.48-9.28 588.48-7.3L588.48-7.3Q588.48-5.15 589.64-3.98 590.8-2.81 592.94-2.81L592.94-2.81Q595.39-2.81 597.24-3.91L597.24-3.91Q599.12-5 600.21-6.92 601.29-8.84 601.29-10.86L601.29-10.86ZM613.01-36.23L617.41-36.23 617.41 0 613.01 0 613.01-36.23ZM646.34-12.28L627.49-12.28Q627.49-7.74 629.37-5.27 631.25-2.81 634.86-2.81L634.86-2.81Q637.72-2.81 639.44-3.96 641.16-5.1 641.77-6.86L641.77-6.86 645.63-5.76Q643.26 0.49 634.86 0.49L634.86 0.49Q629 0.49 625.94-3 622.88-6.49 622.88-13.38L622.88-13.38Q622.88-19.92 625.94-23.41 629-26.9 634.69-26.9L634.69-26.9Q640.53-26.9 643.43-23.39 646.34-19.87 646.34-12.87L646.34-12.87 646.34-12.28ZM627.54-15.65L641.8-15.65Q641.43-19.82 639.67-21.74 637.92-23.66 634.62-23.66L634.62-23.66Q631.42-23.66 629.55-21.52 627.69-19.38 627.54-15.65L627.54-15.65ZM656.42-13.77L656.42-13.77 656.42 0 652.03 0 652.03-20.26Q652.03-21.66 651.99-23.19 651.95-24.73 651.88-26.42L651.88-26.42 656.03-26.42Q656.08-25.29 656.12-24.39 656.15-23.49 656.18-22.81 656.2-22.14 656.21-21.69 656.23-21.24 656.23-21.02L656.23-21.02 656.32-21.02Q657.06-23.41 657.93-24.73L657.93-24.73Q658.79-25.95 659.89-26.43 660.99-26.9 662.6-26.9L662.6-26.9Q663.5-26.9 664.38-26.66L664.38-26.66 664.38-22.63Q663.55-22.88 662.04-22.88L662.04-22.88Q659.3-22.88 657.86-20.52 656.42-18.16 656.42-13.77Z" opacity="1" transform="matrix(1,0,0,1,0,0)" fill="black" class="slogan-text-1" id="SvgjsPath4741" stroke-width="7" stroke="black" stroke-linejoin="round"></path></svg></g></svg></g></svg></g></svg></g></svg></g></svg></g></svg></g></mask><g transform="matrix(1,0,0,1,39.55199999999999,65.00411145979648)"><svg viewBox="0 0 316.416 117.19177708040704" height="117.19177708040704" width="316.416"><g><svg viewBox="0 0 316.416 117.19177708040704" height="117.19177708040704" width="316.416"><g><svg viewBox="0 0 316.416 117.19177708040704" height="117.19177708040704" width="316.416"><g><svg viewBox="0 0 316.416 117.19177708040704" height="117.19177708040704" width="316.416"><g id="textblocktransform"><svg viewBox="0 0 316.416 117.19177708040704" height="117.19177708040704" width="316.416" id="textblock"><g><svg viewBox="0 0 316.416 77.00866719118802" height="77.00866719118802" width="316.416"><g transform="matrix(1,0,0,1,0,0)"><svg width="316.416" viewBox="-3.5 -41.5 191.64 47.4" height="77.00866719118802" data-palette-color="#fffafe"><path d="M25.75-27.7L19.75-2.45Q19.5-1.6 20.08-1.28 20.65-0.95 21.25-0.95L21.25-0.95 21.25 0 9.5 0 9.5-0.95Q9.95-0.95 10.45-1.18 10.95-1.4 10.95-2L10.95-2Q10.95-2.25 10.9-2.4L10.9-2.4 1.5-36.05Q1.4-36.55 0.5-36.55L0.5-36.55 0.5-37.5 10.25-37.5 10.25-36.55Q9.65-36.55 9.35-36.23 9.05-35.9 9.1-35.55L9.1-35.55 15.35-10 21.15-35.05Q21.2-35.2 21.2-35.45L21.2-35.45Q21.2-36.05 20.65-36.3 20.1-36.55 19.6-36.55L19.6-36.55 19.6-37.5 31.5-37.5 31.5-36.55Q30.9-36.55 30.3-36.23 29.7-35.9 29.95-35.05L29.95-35.05 35.65-11.2 40.55-35.55Q40.65-35.85 40.08-36.2 39.5-36.55 38.85-36.55L38.85-36.55 38.85-37.5 49.5-37.5 49.5-36.55Q48.65-36.55 48.5-36.05L48.5-36.05 39.25-2.4Q39.2-2.25 39.2-2L39.2-2Q39.2-1.4 39.68-1.18 40.15-0.95 40.6-0.95L40.6-0.95 40.6 0 29.7 0 29.7-0.95Q30.25-0.95 30.83-1.28 31.4-1.6 31.2-2.45L31.2-2.45 25.75-27.7ZM64.25 0.6Q60.55 0.6 57.72-0.98 54.9-2.55 53.32-5.3 51.75-8.05 51.75-11.5L51.75-11.5Q51.75-14.9 53.32-17.7 54.9-20.5 57.75-22.13 60.6-23.75 64.25-23.75L64.25-23.75Q67.75-23.75 70.6-22.18 73.45-20.6 75.1-17.82 76.75-15.05 76.75-11.5L76.75-11.5Q76.75-8.4 75.27-5.63 73.8-2.85 70.95-1.13 68.1 0.6 64.25 0.6L64.25 0.6ZM64.25-5.15Q67.2-5.15 69.02-6.88 70.85-8.6 70.85-11.35L70.85-11.35Q70.85-14.2 69.02-16.05 67.2-17.9 64.25-17.9L64.25-17.9Q61.5-17.9 59.65-16.07 57.8-14.25 57.8-11.5L57.8-11.5Q57.8-8.6 59.65-6.88 61.5-5.15 64.25-5.15L64.25-5.15ZM124.34-36L124.34-1.5Q124.34-1.25 124.72-1.1 125.09-0.95 125.5-0.95L125.5-0.95 125.5 0 116.75 0 116.75-0.95Q117.15-0.95 117.52-1.1 117.9-1.25 117.9-1.5L117.9-1.5 117.9-30.15 103.25 1.9 88.65-30.25 88.65-1.5Q88.65-1.25 89.02-1.1 89.4-0.95 89.8-0.95L89.8-0.95 89.8 0 81 0 81-0.95Q81.4-0.95 81.77-1.1 82.15-1.25 82.15-1.5L82.15-1.5 82.15-36Q82.15-36.25 81.77-36.4 81.4-36.55 81.05-36.55L81.05-36.55 81.05-37.5 93.95-37.5 93.95-36.55Q93.34-36.55 93.17-36.27 93-36 93.15-35.65L93.15-35.65 103.3-12.05 113.59-35.65Q113.7-35.95 113.3-36.25 112.9-36.55 112.3-36.55L112.3-36.55 112.3-37.5 125.45-37.5 125.45-36.55Q125.09-36.55 124.72-36.4 124.34-36.25 124.34-36L124.34-36ZM157.34-23L157.34-22.05Q156.99-22.05 156.62-21.9 156.24-21.75 156.24-21.5L156.24-21.5 156.24-1.5Q156.24-1.25 156.62-1.1 156.99-0.95 157.34-0.95L157.34-0.95 157.34 0 149.94 0 149.94-2.75Q146.79 0.65 141.99 0.65L141.99 0.65Q138.34 0.65 135.57-0.83 132.79-2.3 131.27-5.05 129.74-7.8 129.74-11.45L129.74-11.45Q129.74-15 131.42-17.78 133.09-20.55 135.89-22.08 138.69-23.6 141.99-23.6L141.99-23.6Q146.79-23.6 149.94-19.9L149.94-19.9 149.94-23 157.34-23ZM142.74-4.65Q144.79-4.65 146.42-5.58 148.04-6.5 148.94-8.03 149.84-9.55 149.84-11.3L149.84-11.3Q149.84-14.3 147.87-16.25 145.89-18.2 142.74-18.2L142.74-18.2Q139.69-18.2 137.72-16.3 135.74-14.4 135.74-11.45L135.74-11.45Q135.74-8.35 137.77-6.5 139.79-4.65 142.74-4.65L142.74-4.65ZM163.09-36Q163.09-36.25 162.72-36.4 162.34-36.55 161.94-36.55L161.94-36.55 161.94-37.5 170.74-37.5 170.74-36.55Q170.34-36.55 169.97-36.4 169.59-36.25 169.59-36L169.59-36 169.59-1.5Q169.59-1.25 169.97-1.1 170.34-0.95 170.74-0.95L170.74-0.95 170.74 0 161.94 0 161.94-0.95Q162.34-0.95 162.72-1.1 163.09-1.25 163.09-1.5L163.09-1.5 163.09-36ZM176.49-36Q176.49-36.25 176.11-36.4 175.74-36.55 175.34-36.55L175.34-36.55 175.34-37.5 184.14-37.5 184.14-36.55Q183.74-36.55 183.36-36.4 182.99-36.25 182.99-36L182.99-36 182.99-1.5Q182.99-1.25 183.36-1.1 183.74-0.95 184.14-0.95L184.14-0.95 184.14 0 175.34 0 175.34-0.95Q175.74-0.95 176.11-1.1 176.49-1.25 176.49-1.5L176.49-1.5 176.49-36Z" opacity="1" transform="matrix(1,0,0,1,0,0)" fill="#ffffff" class="wordmark-text-0" data-fill-palette-color="primary" id="text-0"></path></svg></g></svg></g><g transform="matrix(1,0,0,1,3.5,92.44590826367897)"><svg viewBox="0 0 309.416 24.745868816728052" height="24.745868816728052" width="309.416"><g transform="matrix(1,0,0,1,0,0)"><svg width="309.416" viewBox="-2.9 -40.23 671.28 54.61" height="24.745868816728052" data-palette-color="#fffafe"><path d="M32.25-34.4L18.97-14.26 18.97 0 14.33 0 14.33-14.26 1.1-34.4 6.23-34.4 16.7-18.02 27.12-34.4 32.25-34.4ZM54.47-13.23L54.47-13.23Q54.47-6.3 51.42-2.91 48.36 0.49 42.55 0.49L42.55 0.49Q36.77 0.49 33.81-3.04 30.86-6.57 30.86-13.23L30.86-13.23Q30.86-20.07 33.83-23.49 36.79-26.9 42.7-26.9L42.7-26.9Q48.75-26.9 51.61-23.57 54.47-20.24 54.47-13.23ZM49.85-13.23L49.85-13.23Q49.85-18.7 48.23-21.18 46.61-23.66 42.77-23.66L42.77-23.66Q38.92-23.66 37.19-21.13 35.47-18.6 35.47-13.23L35.47-13.23Q35.47-8.01 37.17-5.38 38.87-2.76 42.5-2.76L42.5-2.76Q46.46-2.76 48.16-5.3 49.85-7.84 49.85-13.23ZM76.71-4.52L76.64-4.52Q75.12-1.78 73.13-0.65 71.14 0.49 68.19 0.49L68.19 0.49Q63.84 0.49 61.83-1.67 59.81-3.83 59.81-8.81L59.81-8.81 59.81-26.42 64.23-26.42 64.23-9.67Q64.23-5.71 65.47-4.31 66.7-2.91 69.68-2.91L69.68-2.91Q72.85-2.91 74.68-5.08 76.51-7.25 76.51-11.11L76.51-11.11 76.51-26.42 80.91-26.42 80.91-5.64Q80.91-3.34 80.94-1.93 80.98-0.51 81.05 0L81.05 0 76.9 0Q76.88-0.12 76.82-1.15 76.76-2.17 76.71-4.52L76.71-4.52ZM92.24-13.77L92.24-13.77 92.24 0 87.84 0 87.84-20.26Q87.84-21.66 87.81-23.19 87.77-24.73 87.7-26.42L87.7-26.42 91.85-26.42Q91.89-25.29 91.93-24.39 91.97-23.49 91.99-22.81 92.02-22.14 92.03-21.69 92.04-21.24 92.04-21.02L92.04-21.02 92.14-21.02Q92.87-23.41 93.75-24.73L93.75-24.73Q94.6-25.95 95.7-26.43 96.8-26.9 98.41-26.9L98.41-26.9Q99.32-26.9 100.2-26.66L100.2-26.66 100.2-22.63Q99.37-22.88 97.85-22.88L97.85-22.88Q95.12-22.88 93.68-20.52 92.24-18.16 92.24-13.77ZM119.53-34.4L124.19-34.4 124.19 0 119.53 0 119.53-34.4ZM136.65-15.31L136.65-15.31 136.65 0 132.28 0 132.28-20.78Q132.28-23.1 132.24-24.5 132.2-25.9 132.13-26.42L132.13-26.42 136.28-26.42Q136.33-25.88 136.38-25.1 136.43-24.32 136.45-23.47 136.47-22.63 136.47-21.9L136.47-21.9 136.55-21.9Q137.96-24.71 139.79-25.81 141.63-26.9 144.26-26.9L144.26-26.9Q147.27-26.9 149.01-25.71 150.76-24.51 151.44-21.9L151.44-21.9 151.51-21.9Q152.88-24.56 154.82-25.73 156.76-26.9 159.52-26.9L159.52-26.9Q163.53-26.9 165.34-24.73 167.16-22.56 167.16-17.6L167.16-17.6 167.16 0 162.82 0 162.82-16.75Q162.82-20.58 161.77-22.05 160.72-23.51 157.98-23.51L157.98-23.51Q155.1-23.51 153.5-21.37 151.9-19.24 151.9-15.31L151.9-15.31 151.9 0 147.56 0 147.56-16.75Q147.56-20.58 146.51-22.05 145.46-23.51 142.72-23.51L142.72-23.51Q139.92-23.51 138.28-21.36 136.65-19.21 136.65-15.31ZM196.17-13.33L196.17-13.33Q196.17-6.42 193.74-2.97 191.31 0.49 186.45 0.49L186.45 0.49Q180.35 0.49 178.25-4.1L178.25-4.1 178.13-4.1Q178.22-3.93 178.22 0.05L178.22 0.05 178.22 10.38 173.83 10.38 173.83-21.02Q173.83-23.05 173.79-24.4 173.75-25.76 173.68-26.42L173.68-26.42 177.93-26.42Q177.95-26.32 178.02-25.46 178.08-24.61 178.13-23.62 178.17-22.63 178.17-22.17L178.17-22.17 178.27-22.17Q179.44-24.61 181.37-25.74 183.3-26.88 186.45-26.88L186.45-26.88Q191.33-26.88 193.75-23.61 196.17-20.34 196.17-13.33ZM191.55-13.23L191.55-13.23Q191.55-18.75 190.06-21.12 188.57-23.49 185.33-23.49L185.33-23.49Q181.71-23.49 179.97-20.98 178.22-18.48 178.22-12.89L178.22-12.89Q178.22-7.69 179.88-5.22 181.54-2.76 185.28-2.76L185.28-2.76Q188.55-2.76 190.05-5.16 191.55-7.57 191.55-13.23ZM223.97-13.23L223.97-13.23Q223.97-6.3 220.92-2.91 217.87 0.49 212.06 0.49L212.06 0.49Q206.27 0.49 203.32-3.04 200.37-6.57 200.37-13.23L200.37-13.23Q200.37-20.07 203.33-23.49 206.3-26.9 212.21-26.9L212.21-26.9Q218.26-26.9 221.12-23.57 223.97-20.24 223.97-13.23ZM219.36-13.23L219.36-13.23Q219.36-18.7 217.74-21.18 216.11-23.66 212.28-23.66L212.28-23.66Q208.42-23.66 206.7-21.13 204.98-18.6 204.98-13.23L204.98-13.23Q204.98-8.01 206.68-5.38 208.37-2.76 212.01-2.76L212.01-2.76Q215.97-2.76 217.66-5.3 219.36-7.84 219.36-13.23ZM233.94-13.77L233.94-13.77 233.94 0 229.54 0 229.54-20.26Q229.54-21.66 229.5-23.19 229.47-24.73 229.39-26.42L229.39-26.42 233.54-26.42Q233.59-25.29 233.63-24.39 233.67-23.49 233.69-22.81 233.72-22.14 233.73-21.69 233.74-21.24 233.74-21.02L233.74-21.02 233.84-21.02Q234.57-23.41 235.45-24.73L235.45-24.73Q236.3-25.95 237.4-26.43 238.5-26.9 240.11-26.9L240.11-26.9Q241.02-26.9 241.89-26.66L241.89-26.66 241.89-22.63Q241.06-22.88 239.55-22.88L239.55-22.88Q236.82-22.88 235.38-20.52 233.94-18.16 233.94-13.77ZM256.25-3.44L256.25-0.2Q254.1 0.39 251.81 0.39L251.81 0.39Q249.17 0.39 247.85-1.11 246.53-2.61 246.53-5.59L246.53-5.59 246.53-23.22 243.48-23.22 243.48-26.42 246.7-26.42 248-32.32 250.93-32.32 250.93-26.42 255.81-26.42 255.81-23.22 250.93-23.22 250.93-6.54Q250.93-4.64 251.55-3.87 252.17-3.1 253.71-3.1L253.71-3.1Q254.54-3.1 256.25-3.44L256.25-3.44ZM280.62 0.49L280.62 0.49Q276.64 0.49 274.63-1.61 272.63-3.71 272.63-7.37L272.63-7.37Q272.63-11.47 275.33-13.67 278.03-15.87 284.03-16.02L284.03-16.02 289.97-16.11 289.97-17.55Q289.97-20.78 288.6-22.17 287.23-23.56 284.3-23.56L284.3-23.56Q281.35-23.56 280-22.56 278.66-21.56 278.39-19.36L278.39-19.36 273.8-19.78Q274.93-26.9 284.4-26.9L284.4-26.9Q289.38-26.9 291.89-24.62 294.41-22.34 294.41-18.02L294.41-18.02 294.41-6.64Q294.41-4.69 294.92-3.7 295.43-2.71 296.88-2.71L296.88-2.71Q297.56-2.71 298.32-2.88L298.32-2.88 298.32-0.15Q297.49 0.05 296.63 0.15 295.78 0.24 294.92 0.24L294.92 0.24Q292.48 0.24 291.37-1.04 290.26-2.32 290.11-5.05L290.11-5.05 289.97-5.05Q288.28-2.03 286.05-0.77 283.81 0.49 280.62 0.49ZM289.97-10.86L289.97-13.04 285.16-12.94Q282.08-12.92 280.47-12.3L280.47-12.3Q278.86-11.72 278-10.5 277.15-9.28 277.15-7.3L277.15-7.3Q277.15-5.15 278.31-3.98 279.47-2.81 281.62-2.81L281.62-2.81Q284.06-2.81 285.91-3.91L285.91-3.91Q287.79-5 288.88-6.92 289.97-8.84 289.97-10.86L289.97-10.86ZM306.18-15.31L306.18-15.31 306.18 0 301.78 0 301.78-20.78Q301.78-23.1 301.75-24.5 301.71-25.9 301.64-26.42L301.64-26.42 305.79-26.42Q305.83-25.95 305.87-25.24 305.91-24.54 305.93-23.68 305.96-22.83 305.98-21.9L305.98-21.9 306.05-21.9Q307.57-24.63 309.56-25.77 311.55-26.9 314.5-26.9L314.5-26.9Q318.85-26.9 320.86-24.68 322.88-22.46 322.88-17.6L322.88-17.6 322.88 0 318.46 0 318.46-16.75Q318.46-20.53 317.24-22.02 316.02-23.51 313.01-23.51L313.01-23.51Q309.84-23.51 308.01-21.34 306.18-19.17 306.18-15.31ZM350.71 0L346.51 0Q346.46-0.27 346.4-1.01 346.34-1.76 346.3-2.66 346.26-3.56 346.26-4.25L346.26-4.25 346.17-4.25Q344.95-1.71 342.93-0.61 340.92 0.49 337.94 0.49L337.94 0.49Q332.93 0.49 330.58-2.88 328.22-6.25 328.22-13.09L328.22-13.09Q328.22-20 330.65-23.45 333.08-26.9 337.94-26.9L337.94-26.9Q340.94-26.9 342.94-25.81 344.95-24.71 346.17-22.31L346.17-22.31 346.22-22.31 346.17-25.27 346.17-36.23 350.56-36.23 350.56-5.44Q350.56-3.37 350.6-2.01 350.63-0.66 350.71 0L350.71 0ZM332.84-13.23L332.84-13.23Q332.84-7.69 334.3-5.3 335.77-2.91 339.06-2.91L339.06-2.91Q342.8-2.91 344.48-5.49 346.17-8.08 346.17-13.53L346.17-13.53Q346.17-18.77 344.48-21.22 342.8-23.66 339.11-23.66L339.11-23.66Q335.79-23.66 334.31-21.2 332.84-18.75 332.84-13.23ZM376.59-3.81L399.02-3.81 399.02 0 371.92 0 371.92-34.4 398.02-34.4 398.02-30.59 376.59-30.59 376.59-19.56 396.56-19.56 396.56-15.8 376.59-15.8 376.59-3.81ZM420.73 0L413.62-10.84 406.47 0 401.73 0 411.13-13.57 402.17-26.42 407.03-26.42 413.62-16.14 420.17-26.42 425.07-26.42 416.11-13.62 425.63 0 420.73 0ZM451.88-13.33L451.88-13.33Q451.88-6.42 449.45-2.97 447.02 0.49 442.16 0.49L442.16 0.49Q436.06 0.49 433.96-4.1L433.96-4.1 433.84-4.1Q433.94-3.93 433.94 0.05L433.94 0.05 433.94 10.38 429.54 10.38 429.54-21.02Q429.54-23.05 429.5-24.4 429.47-25.76 429.39-26.42L429.39-26.42 433.64-26.42Q433.67-26.32 433.73-25.46 433.79-24.61 433.84-23.62 433.89-22.63 433.89-22.17L433.89-22.17 433.98-22.17Q435.16-24.61 437.08-25.74 439.01-26.88 442.16-26.88L442.16-26.88Q447.05-26.88 449.46-23.61 451.88-20.34 451.88-13.33ZM447.27-13.23L447.27-13.23Q447.27-18.75 445.78-21.12 444.29-23.49 441.04-23.49L441.04-23.49Q437.43-23.49 435.68-20.98 433.94-18.48 433.94-12.89L433.94-12.89Q433.94-7.69 435.6-5.22 437.26-2.76 440.99-2.76L440.99-2.76Q444.26-2.76 445.76-5.16 447.27-7.57 447.27-13.23ZM479.69-13.23L479.69-13.23Q479.69-6.3 476.64-2.91 473.58 0.49 467.77 0.49L467.77 0.49Q461.99 0.49 459.03-3.04 456.08-6.57 456.08-13.23L456.08-13.23Q456.08-20.07 459.05-23.49 462.01-26.9 467.92-26.9L467.92-26.9Q473.97-26.9 476.83-23.57 479.69-20.24 479.69-13.23ZM475.07-13.23L475.07-13.23Q475.07-18.7 473.45-21.18 471.83-23.66 467.99-23.66L467.99-23.66Q464.14-23.66 462.41-21.13 460.69-18.6 460.69-13.23L460.69-13.23Q460.69-8.01 462.39-5.38 464.09-2.76 467.72-2.76L467.72-2.76Q471.68-2.76 473.38-5.3 475.07-7.84 475.07-13.23ZM489.65-13.77L489.65-13.77 489.65 0 485.25 0 485.25-20.26Q485.25-21.66 485.22-23.19 485.18-24.73 485.11-26.42L485.11-26.42 489.26-26.42Q489.31-25.29 489.34-24.39 489.38-23.49 489.4-22.81 489.43-22.14 489.44-21.69 489.45-21.24 489.45-21.02L489.45-21.02 489.55-21.02Q490.28-23.41 491.16-24.73L491.16-24.73Q492.02-25.95 493.12-26.43 494.21-26.9 495.83-26.9L495.83-26.9Q496.73-26.9 497.61-26.66L497.61-26.66 497.61-22.63Q496.78-22.88 495.26-22.88L495.26-22.88Q492.53-22.88 491.09-20.52 489.65-18.16 489.65-13.77ZM511.96-3.44L511.96-0.2Q509.81 0.39 507.52 0.39L507.52 0.39Q504.88 0.39 503.56-1.11 502.25-2.61 502.25-5.59L502.25-5.59 502.25-23.22 499.19-23.22 499.19-26.42 502.42-26.42 503.71-32.32 506.64-32.32 506.64-26.42 511.52-26.42 511.52-23.22 506.64-23.22 506.64-6.54Q506.64-4.64 507.26-3.87 507.89-3.1 509.42-3.1L509.42-3.1Q510.25-3.1 511.96-3.44L511.96-3.44ZM550.81 0L546.61 0Q546.56-0.27 546.5-1.01 546.44-1.76 546.4-2.66 546.36-3.56 546.36-4.25L546.36-4.25 546.26-4.25Q545.04-1.71 543.03-0.61 541.02 0.49 538.04 0.49L538.04 0.49Q533.03 0.49 530.68-2.88 528.32-6.25 528.32-13.09L528.32-13.09Q528.32-20 530.75-23.45 533.18-26.9 538.04-26.9L538.04-26.9Q541.04-26.9 543.04-25.81 545.04-24.71 546.26-22.31L546.26-22.31 546.31-22.31 546.26-25.27 546.26-36.23 550.66-36.23 550.66-5.44Q550.66-3.37 550.7-2.01 550.73-0.66 550.81 0L550.81 0ZM532.93-13.23L532.93-13.23Q532.93-7.69 534.4-5.3 535.86-2.91 539.16-2.91L539.16-2.91Q542.9-2.91 544.58-5.49 546.26-8.08 546.26-13.53L546.26-13.53Q546.26-18.77 544.58-21.22 542.9-23.66 539.21-23.66L539.21-23.66Q535.89-23.66 534.41-21.2 532.93-18.75 532.93-13.23ZM579.61-12.28L560.77-12.28Q560.77-7.74 562.65-5.27 564.53-2.81 568.14-2.81L568.14-2.81Q571-2.81 572.72-3.96 574.44-5.1 575.05-6.86L575.05-6.86 578.91-5.76Q576.54 0.49 568.14 0.49L568.14 0.49Q562.28 0.49 559.22-3 556.15-6.49 556.15-13.38L556.15-13.38Q556.15-19.92 559.22-23.41 562.28-26.9 567.97-26.9L567.97-26.9Q573.8-26.9 576.71-23.39 579.61-19.87 579.61-12.87L579.61-12.87 579.61-12.28ZM560.82-15.65L575.07-15.65Q574.71-19.82 572.95-21.74 571.19-23.66 567.9-23.66L567.9-23.66Q564.7-23.66 562.83-21.52 560.96-19.38 560.82-15.65L560.82-15.65ZM591.94 0.49L591.94 0.49Q587.96 0.49 585.96-1.61 583.96-3.71 583.96-7.37L583.96-7.37Q583.96-11.47 586.66-13.67 589.36-15.87 595.36-16.02L595.36-16.02 601.29-16.11 601.29-17.55Q601.29-20.78 599.93-22.17 598.56-23.56 595.63-23.56L595.63-23.56Q592.68-23.56 591.33-22.56 589.99-21.56 589.72-19.36L589.72-19.36 585.13-19.78Q586.25-26.9 595.73-26.9L595.73-26.9Q600.71-26.9 603.22-24.62 605.74-22.34 605.74-18.02L605.74-18.02 605.74-6.64Q605.74-4.69 606.25-3.7 606.76-2.71 608.2-2.71L608.2-2.71Q608.89-2.71 609.64-2.88L609.64-2.88 609.64-0.15Q608.81 0.05 607.96 0.15 607.1 0.24 606.25 0.24L606.25 0.24Q603.81 0.24 602.7-1.04 601.59-2.32 601.44-5.05L601.44-5.05 601.29-5.05Q599.61-2.03 597.38-0.77 595.14 0.49 591.94 0.49ZM601.29-10.86L601.29-13.04 596.48-12.94Q593.41-12.92 591.8-12.3L591.8-12.3Q590.19-11.72 589.33-10.5 588.48-9.28 588.48-7.3L588.48-7.3Q588.48-5.15 589.64-3.98 590.8-2.81 592.94-2.81L592.94-2.81Q595.39-2.81 597.24-3.91L597.24-3.91Q599.12-5 600.21-6.92 601.29-8.84 601.29-10.86L601.29-10.86ZM613.01-36.23L617.41-36.23 617.41 0 613.01 0 613.01-36.23ZM646.34-12.28L627.49-12.28Q627.49-7.74 629.37-5.27 631.25-2.81 634.86-2.81L634.86-2.81Q637.72-2.81 639.44-3.96 641.16-5.1 641.77-6.86L641.77-6.86 645.63-5.76Q643.26 0.49 634.86 0.49L634.86 0.49Q629 0.49 625.94-3 622.88-6.49 622.88-13.38L622.88-13.38Q622.88-19.92 625.94-23.41 629-26.9 634.69-26.9L634.69-26.9Q640.53-26.9 643.43-23.39 646.34-19.87 646.34-12.87L646.34-12.87 646.34-12.28ZM627.54-15.65L641.8-15.65Q641.43-19.82 639.67-21.74 637.92-23.66 634.62-23.66L634.62-23.66Q631.42-23.66 629.55-21.52 627.69-19.38 627.54-15.65L627.54-15.65ZM656.42-13.77L656.42-13.77 656.42 0 652.03 0 652.03-20.26Q652.03-21.66 651.99-23.19 651.95-24.73 651.88-26.42L651.88-26.42 656.03-26.42Q656.08-25.29 656.12-24.39 656.15-23.49 656.18-22.81 656.2-22.14 656.21-21.69 656.23-21.24 656.23-21.02L656.23-21.02 656.32-21.02Q657.06-23.41 657.93-24.73L657.93-24.73Q658.79-25.95 659.89-26.43 660.99-26.9 662.6-26.9L662.6-26.9Q663.5-26.9 664.38-26.66L664.38-26.66 664.38-22.63Q663.55-22.88 662.04-22.88L662.04-22.88Q659.3-22.88 657.86-20.52 656.42-18.16 656.42-13.77Z" opacity="1" transform="matrix(1,0,0,1,0,0)" fill="#ffffff" class="slogan-text-1" data-fill-palette-color="secondary" id="text-1"></path></svg></g></svg></g></svg></g></svg></g></svg></g></svg></g></svg></g><g mask="url(#1d86317d-bc7d-40e4-b538-231d9b9c5a52)"><g transform="matrix(0.6663043478260869, 0, 0, 0.6663043478260869, 75.16, 1)"><svg xmlns="http://www.w3.org/2000/svg" xmlns:xlink="http://www.w3.org/1999/xlink" version="1.1" x="0" y="0" viewBox="56 88 368 368" enable-background="new 0 0 512 512" xml:space="preserve" height="368" width="368" class="icon-none" data-fill-palette-color="accent" id="none"><g fill="#fffafe" data-fill-palette-color="accent"><polygon points="424,456 56,456 56,88 224,88 224,104 72,104 72,440 408,440 408,288 424,288  " fill="#ffffff" data-fill-palette-color="accent"></polygon></g><g fill="#fffafe" data-fill-palette-color="accent"><polygon points="347,263 249,263 249,165 265,165 265,247 347,247  " fill="#ffffff" data-fill-palette-color="accent"></polygon></g><g fill="#fffafe" data-fill-palette-color="accent"><rect x="328" y="64.001" transform="matrix(0.7071 0.7071 -0.7071 0.7071 222.8556 -186.0364)" width="16.001" height="224" fill="#ffffff" data-fill-palette-color="accent"></rect></g></svg></g></g></svg></g><defs></defs></svg><rect width="395.52" height="247.2" fill="none" stroke="none" visibility="hidden"></rect></g></svg></g></svg>